<?xml version="1.0" encoding="utf-8"?>
<!-- Generator: Adobe Illustrator 22.0.1, SVG Export Plug-In . SVG Version: 6.00 Build 0)  -->
<svg version="1.1" id="Layer_1" xmlns="http://www.w3.org/2000/svg" xmlns:xlink="http://www.w3.org/1999/xlink" x="0px" y="0px"
	 viewBox="0 0 400 400" style="enable-background:new 0 0 400 400;" xml:space="preserve">
<g>
	<path d="M54.7,17.6c0.4,0.4,0.6,0.9,0.6,1.4c0,0.5-0.2,1-0.6,1.4c-0.4,0.4-0.9,0.6-1.4,0.6c-0.5,0-1-0.2-1.4-0.6s-0.6-0.9-0.6-1.4
		c0-0.5,0.2-1,0.6-1.4c0.4-0.4,0.9-0.6,1.4-0.6C53.8,17,54.3,17.2,54.7,17.6z M52.3,24h2v15h-2V24z"/>
	<path d="M69,17.2c-1.3,0.8-2.3,1.9-2.9,3.3h7.2v2h-7.9c-0.1,0.5-0.1,1-0.1,1.5c0,0.5,0,1,0.1,1.5h7.9v2h-7.2
		c0.7,1.3,1.6,2.4,2.9,3.3c1.3,0.8,2.7,1.2,4.3,1.2c0.7,0,1.4-0.1,2-0.3v2.1c-0.6,0.1-1.3,0.2-2,0.2c-1.4,0-2.7-0.3-4-0.8
		c-1.3-0.6-2.3-1.3-3.3-2.3c-0.9-1-1.6-2.1-2.1-3.4h-3.6v-2h3.1c-0.1-0.5-0.1-1-0.1-1.5s0-1,0.1-1.5h-3.1v-2h3.6
		c0.5-1.3,1.2-2.4,2.1-3.4c0.9-1,2-1.7,3.3-2.3c1.3-0.6,2.6-0.8,4-0.8c0.7,0,1.4,0.1,2,0.2v2.1c-0.6-0.2-1.3-0.3-2-0.3
		C71.7,16,70.3,16.4,69,17.2z"/>
	<path d="M85.4,30.3c-0.3,0.6-0.7,1.2-1.2,1.7h7.1v2h-12v-2c0.6,0,1.3-0.2,2-0.5c0.7-0.3,1.3-0.8,1.8-1.3c0.5-0.6,0.8-1.1,0.8-1.8
		c0-0.7-0.1-1.3-0.2-1.8c-0.2-0.5-0.4-1-0.8-1.6h-3.5v-2h2.3c-0.2-0.5-0.4-1-0.5-1.6s-0.2-1.2-0.2-2c0-1,0.2-1.9,0.7-2.7
		s1.1-1.5,2-2s1.7-0.7,2.7-0.7h1.2c0.7,0,1.4,0.1,2.1,0.4c0.7,0.3,1.2,0.7,1.7,1.2L89.9,17c-0.3-0.3-0.7-0.6-1.1-0.7
		c-0.4-0.2-0.8-0.3-1.3-0.3h-1.2c-0.6,0-1.1,0.2-1.7,0.5c-0.5,0.3-0.9,0.7-1.3,1.3c-0.3,0.5-0.5,1.1-0.5,1.7c0,0.8,0.1,1.5,0.2,2
		s0.4,1,0.8,1.6h5.4v2h-4.3c0.3,0.6,0.6,1.1,0.7,1.6c0.2,0.5,0.2,1.1,0.2,1.8C85.9,29.1,85.7,29.7,85.4,30.3z"/>
	<path d="M107.3,29c-0.6,0.5-1.2,0.9-1.9,1.3c-0.7,0.3-1.4,0.6-2.1,0.7V34h-2v-3.1c-1.1-0.2-2.1-0.6-3-1.2c-0.9-0.7-1.6-1.5-2.2-2.5
		c-0.5-1-0.8-2.1-0.8-3.2c0-1.1,0.3-2.2,0.8-3.2c0.5-1,1.2-1.8,2.2-2.5c0.9-0.7,1.9-1.1,3-1.2V14h2v3.1c0.7,0.1,1.5,0.3,2.1,0.7
		c0.7,0.3,1.3,0.8,1.9,1.3l-1.4,1.4c-0.5-0.4-1.1-0.8-1.7-1c-0.6-0.2-1.3-0.4-1.9-0.4c-0.9,0-1.7,0.2-2.5,0.7
		c-0.8,0.4-1.4,1.1-1.8,1.8s-0.7,1.6-0.7,2.5s0.2,1.7,0.7,2.5c0.4,0.8,1.1,1.4,1.8,1.8c0.8,0.4,1.6,0.7,2.5,0.7
		c0.7,0,1.3-0.1,1.9-0.4c0.6-0.2,1.2-0.6,1.7-1L107.3,29z"/>
	<path d="M130.5,19.7c0.8,0.4,1.4,1.1,1.8,1.8s0.7,1.6,0.7,2.5c0,0.9-0.2,1.7-0.7,2.5s-1.1,1.4-1.8,1.8c-0.8,0.5-1.6,0.7-2.5,0.7
		c-0.7,0-1.3-0.1-1.9-0.4c-0.6-0.2-1.2-0.6-1.7-1l-2.2-2.2l-2.2,2.2c-0.5,0.4-1.1,0.8-1.7,1c-0.6,0.2-1.3,0.4-1.9,0.4
		c-0.9,0-1.7-0.2-2.5-0.7c-0.8-0.5-1.4-1.1-1.8-1.8s-0.7-1.6-0.7-2.5c0-0.9,0.2-1.7,0.7-2.5s1.1-1.4,1.8-1.8
		c0.8-0.4,1.6-0.7,2.5-0.7c0.7,0,1.3,0.1,1.9,0.4s1.2,0.6,1.7,1l2.2,2.2l2.2-2.2c0.5-0.4,1-0.8,1.7-1s1.3-0.4,1.9-0.4
		C128.9,19,129.8,19.2,130.5,19.7z M120.9,24l-2.2-2.2c-0.7-0.5-1.5-0.8-2.2-0.8c-0.5,0-1,0.1-1.5,0.4c-0.5,0.3-0.8,0.6-1.1,1.1
		c-0.3,0.5-0.4,1-0.4,1.5c0,0.5,0.1,1,0.4,1.5c0.3,0.5,0.6,0.8,1.1,1.1c0.5,0.3,1,0.4,1.5,0.4c0.7,0,1.5-0.3,2.2-0.8L120.9,24z
		 M129.5,26.6c0.5-0.3,0.8-0.6,1.1-1.1c0.3-0.5,0.4-1,0.4-1.5c0-0.5-0.1-1-0.4-1.5c-0.3-0.5-0.6-0.8-1.1-1.1c-0.5-0.3-1-0.4-1.5-0.4
		c-0.7,0-1.5,0.3-2.2,0.8l-2.2,2.2l2.2,2.2c0.7,0.5,1.5,0.8,2.2,0.8C128.6,27,129.1,26.9,129.5,26.6z"/>
	<path d="M146.7,26.2c-0.4,0.7-0.9,1.3-1.5,1.8c0.6,0.5,1.1,1,1.5,1.8s0.5,1.5,0.5,2.2c0,0.9-0.2,1.7-0.7,2.5
		c-0.5,0.8-1.1,1.4-1.8,1.8c-0.8,0.4-1.6,0.7-2.5,0.7c-0.9,0-1.7-0.2-2.5-0.7c-0.8-0.4-1.4-1.1-1.8-1.8c-0.4-0.8-0.7-1.6-0.7-2.5h2
		c0,0.5,0.1,1,0.4,1.5c0.3,0.5,0.6,0.8,1.1,1.1c0.5,0.3,1,0.4,1.5,0.4c0.5,0,1-0.1,1.5-0.4c0.5-0.3,0.8-0.6,1.1-1.1
		c0.3-0.5,0.4-1,0.4-1.5c0-0.5-0.1-1-0.4-1.5c-0.3-0.5-0.6-0.8-1.1-1.1s-1-0.4-1.5-0.4c-0.9,0-1.7-0.2-2.5-0.7
		c-0.8-0.5-1.4-1.1-1.8-1.8s-0.7-1.6-0.7-2.5c0-0.8,0.2-1.6,0.5-2.3c0.4-0.7,0.9-1.3,1.5-1.7c-0.6-0.5-1.1-1-1.5-1.8
		s-0.5-1.5-0.5-2.2c0-0.9,0.2-1.7,0.7-2.5s1.1-1.4,1.8-1.8c0.8-0.4,1.6-0.7,2.5-0.7c0.9,0,1.7,0.2,2.5,0.7c0.8,0.4,1.4,1.1,1.8,1.8
		c0.4,0.8,0.7,1.6,0.7,2.5h-2c0-0.5-0.1-1-0.4-1.5c-0.3-0.5-0.6-0.8-1.1-1.1c-0.5-0.3-1-0.4-1.5-0.4c-0.5,0-1,0.1-1.5,0.4
		c-0.5,0.3-0.8,0.6-1.1,1.1c-0.3,0.5-0.4,1-0.4,1.5c0,0.5,0.1,1,0.4,1.5c0.3,0.5,0.6,0.8,1.1,1.1c0.5,0.3,1,0.4,1.5,0.4
		c0.9,0,1.7,0.2,2.5,0.7c0.8,0.4,1.4,1.1,1.8,1.8c0.4,0.8,0.7,1.6,0.7,2.5C147.3,24.8,147.1,25.5,146.7,26.2z M143.8,26.6
		c0.5-0.3,0.8-0.6,1.1-1.1c0.3-0.5,0.4-1,0.4-1.5c0-0.5-0.1-1-0.4-1.5c-0.3-0.5-0.6-0.8-1.1-1.1c-0.5-0.3-1-0.4-1.5-0.4
		c-0.5,0-1,0.1-1.5,0.4c-0.5,0.3-0.8,0.6-1.1,1.1c-0.3,0.5-0.4,1-0.4,1.5c0,0.5,0.1,1,0.4,1.5c0.3,0.5,0.6,0.8,1.1,1.1
		c0.5,0.3,1,0.4,1.5,0.4C142.8,27,143.3,26.9,143.8,26.6z"/>
	<path d="M152.2,14.5c0.6-1.1,1.5-1.9,2.5-2.6c1.1-0.6,2.2-0.9,3.5-0.9h2v26h-2V25c-1.3,0-2.4-0.3-3.5-0.9c-1.1-0.6-1.9-1.5-2.5-2.6
		c-0.6-1.1-0.9-2.2-0.9-3.5C151.3,16.7,151.6,15.6,152.2,14.5z M164.3,11v26h-2V11H164.3z"/>
	<path d="M194.3,25h-11.8c0.1,0.7,0.4,1.4,0.9,2s1,1.1,1.7,1.4c0.7,0.3,1.4,0.5,2.2,0.5c0.7,0,1.3-0.1,1.9-0.4
		c0.6-0.2,1.2-0.6,1.7-1l1.4,1.4c-0.7,0.6-1.4,1.1-2.3,1.5c-0.9,0.4-1.8,0.5-2.7,0.5c-1.3,0-2.4-0.3-3.5-0.9
		c-1.1-0.6-1.9-1.4-2.5-2.5c-0.6,1-1.5,1.9-2.5,2.5c-1.1,0.6-2.2,0.9-3.5,0.9c-1.3,0-2.5-0.3-3.5-0.9c-1.1-0.6-1.9-1.5-2.5-2.5
		c-0.6-1.1-0.9-2.2-0.9-3.5s0.3-2.5,0.9-3.5s1.5-1.9,2.5-2.5c1.1-0.6,2.2-0.9,3.5-0.9c1.3,0,2.4,0.3,3.5,0.9
		c1.1,0.6,1.9,1.4,2.5,2.5c0.6-1,1.5-1.8,2.5-2.5c1.1-0.6,2.2-0.9,3.5-0.9c1.3,0,2.4,0.3,3.5,0.9c1.1,0.6,1.9,1.5,2.5,2.6
		c0.6,1.1,0.9,2.2,0.9,3.5V25z M177.8,28.3c0.8-0.4,1.4-1,1.8-1.8c0.4-0.8,0.7-1.6,0.7-2.5s-0.2-1.8-0.7-2.5c-0.4-0.8-1-1.4-1.8-1.8
		c-0.8-0.4-1.6-0.7-2.5-0.7s-1.8,0.2-2.5,0.7s-1.4,1-1.8,1.8c-0.4,0.8-0.7,1.6-0.7,2.5s0.2,1.8,0.7,2.5c0.4,0.8,1,1.4,1.8,1.8
		s1.6,0.7,2.5,0.7S177,28.8,177.8,28.3z M192.1,23c-0.1-0.7-0.4-1.4-0.9-2c-0.5-0.6-1-1.1-1.7-1.4c-0.7-0.3-1.4-0.5-2.2-0.5
		s-1.5,0.2-2.2,0.5c-0.7,0.3-1.3,0.8-1.7,1.4s-0.7,1.3-0.9,2H192.1z"/>
	<path d="M206.5,24h3.8v2h-4v2h4v2h-4v4h-2v-4h-4v-2h4v-2h-4v-2h3.8l-6.8-10h2.4l5.6,8.2l5.6-8.2h2.4L206.5,24z"/>
	<path d="M219.7,17.3c0.5-0.2,1-0.3,1.5-0.3h3c0.7,0,1.4,0.2,2,0.5s1.1,0.8,1.5,1.5s0.5,1.3,0.5,2v6c0,0.6,0.2,1.1,0.5,1.5
		c0.4,0.4,0.9,0.5,1.5,0.5v2c-0.6,0-1.2-0.1-1.8-0.3s-1-0.5-1.3-1c-0.3,0.4-0.8,0.7-1.3,0.9c-0.5,0.2-1.1,0.4-1.6,0.4h-4
		c-0.7,0-1.4-0.2-2-0.5s-1.1-0.8-1.5-1.5s-0.5-1.3-0.5-2s0.2-1.4,0.5-2s0.8-1.1,1.5-1.5s1.3-0.5,2-0.5h4c0.5,0,1-0.2,1.4-0.6
		c0.4-0.4,0.6-0.9,0.6-1.4c0-0.5-0.2-1-0.6-1.4c-0.4-0.4-0.9-0.6-1.4-0.6h-3c-0.5,0-1,0.2-1.4,0.6l-1.4-1.4
		C218.8,17.8,219.2,17.5,219.7,17.3z M218.8,28.4c0.4,0.4,0.9,0.6,1.4,0.6h4c0.5,0,1-0.2,1.4-0.6c0.4-0.4,0.6-0.9,0.6-1.4v-2.5
		c-0.7,0.3-1.3,0.5-2,0.5h-4c-0.5,0-1,0.2-1.4,0.6c-0.4,0.4-0.6,0.9-0.6,1.4C218.3,27.5,218.4,28,218.8,28.4z M221.3,13.5
		c-0.6-0.4-1.1-0.8-1.5-1.5s-0.5-1.3-0.5-2s0.2-1.4,0.5-2s0.8-1.1,1.5-1.5s1.3-0.5,2-0.5s1.4,0.2,2,0.5s1.1,0.8,1.5,1.5
		s0.5,1.3,0.5,2s-0.2,1.4-0.5,2s-0.8,1.1-1.5,1.5s-1.3,0.5-2,0.5S221.9,13.8,221.3,13.5z M224.7,11.4c0.4-0.4,0.6-0.9,0.6-1.4
		c0-0.5-0.2-1-0.6-1.4c-0.4-0.4-0.9-0.6-1.4-0.6s-1,0.2-1.4,0.6c-0.4,0.4-0.6,0.9-0.6,1.4c0,0.5,0.2,1,0.6,1.4s0.9,0.6,1.4,0.6
		S224.3,11.8,224.7,11.4z"/>
	<path d="M246.1,25.3c0.7,0.9,1,2,1,3.1c0,1-0.2,2-0.7,2.8c-0.5,0.9-1.1,1.5-2,2c-0.8,0.5-1.7,0.8-2.7,0.8h-2.4v-2h2.4
		c0.6,0,1.2-0.2,1.7-0.5c0.5-0.3,0.9-0.8,1.2-1.3s0.5-1.2,0.5-1.8c0-0.6-0.2-1.2-0.5-1.7s-0.7-0.9-1.2-1.2c-0.5-0.3-1.1-0.5-1.7-0.5
		h-2.2v-2h0.2c0.6,0,1.1-0.2,1.7-0.5c0.5-0.3,0.9-0.8,1.3-1.3c0.3-0.6,0.5-1.2,0.5-1.8c0-0.6-0.2-1.1-0.5-1.7
		c-0.3-0.5-0.7-0.9-1.3-1.3c-0.5-0.3-1.1-0.5-1.7-0.5c-0.6,0-1.1,0.2-1.7,0.5c-0.5,0.3-0.9,0.7-1.3,1.3c-0.3,0.5-0.5,1.1-0.5,1.7V34
		h-2V19.4c0-0.9,0.2-1.8,0.7-2.7c0.5-0.8,1.2-1.5,2-2c0.8-0.5,1.7-0.7,2.7-0.7c0.9,0,1.8,0.2,2.7,0.7c0.8,0.5,1.5,1.2,2,2
		c0.5,0.8,0.7,1.7,0.7,2.7c0,0.7-0.1,1.5-0.4,2.1c-0.3,0.7-0.7,1.3-1.2,1.8C244.5,23.7,245.4,24.4,246.1,25.3z"/>
	<path d="M260.4,30.3c-0.7,0.3-1.4,0.6-2.1,0.7v1.3c0.6,0.2,1.1,0.6,1.5,1.1c0.4,0.5,0.5,1.1,0.5,1.7c0,0.6-0.1,1.1-0.4,1.5
		c-0.3,0.5-0.6,0.8-1.1,1.1c-0.5,0.3-1,0.4-1.5,0.4c-0.4,0-0.8-0.1-1.2-0.2s-0.7-0.3-1-0.6l1.5-1.5c0.2,0.2,0.4,0.3,0.7,0.3
		c0.3,0,0.5-0.1,0.7-0.3c0.2-0.2,0.3-0.4,0.3-0.7c0-0.3-0.1-0.5-0.3-0.7c-0.2-0.2-0.4-0.3-0.7-0.3h-1v-3.1c-1.1-0.2-2.1-0.6-3-1.2
		c-0.9-0.7-1.6-1.5-2.2-2.5c-0.5-1-0.8-2.1-0.8-3.2c0-1.3,0.3-2.4,0.9-3.5c0.6-1.1,1.5-1.9,2.5-2.6c1.1-0.6,2.2-0.9,3.5-0.9
		c0.9,0,1.8,0.2,2.7,0.5c0.9,0.4,1.6,0.8,2.3,1.5l-1.4,1.4c-0.5-0.4-1-0.8-1.7-1s-1.3-0.4-1.9-0.4c-0.9,0-1.7,0.2-2.5,0.7
		c-0.8,0.4-1.4,1.1-1.8,1.8c-0.4,0.8-0.7,1.6-0.7,2.5s0.2,1.7,0.7,2.5c0.4,0.8,1.1,1.4,1.8,1.8c0.8,0.4,1.6,0.7,2.5,0.7
		c0.7,0,1.3-0.1,1.9-0.4c0.6-0.2,1.2-0.6,1.7-1l1.4,1.4C261.7,29.5,261.1,29.9,260.4,30.3z"/>
	<path d="M279.3,15.3c1.5,0.9,2.7,2.1,3.6,3.6c0.9,1.5,1.3,3.2,1.3,5c0,1.8-0.5,3.5-1.3,5c-0.9,1.5-2.1,2.7-3.6,3.6s-3.2,1.4-5,1.4
		h-6v-9h-2v-2h2v-9h6C276.1,14,277.7,14.4,279.3,15.3z M278.3,30.9c1.2-0.7,2.2-1.7,2.9-2.9c0.7-1.2,1.1-2.6,1.1-4
		c0-1.5-0.4-2.8-1.1-4c-0.7-1.2-1.7-2.2-2.9-2.9c-1.2-0.7-2.6-1.1-4-1.1h-4v7h6v2h-6v7h4C275.7,32,277,31.6,278.3,30.9z"/>
	<path d="M301.3,16.2c0.7,2.5,1,5.1,1,7.8c0,1.3-0.3,2.5-0.9,3.5c-0.6,1.1-1.5,1.9-2.5,2.5c-1.1,0.6-2.2,0.9-3.5,0.9
		s-2.5-0.3-3.5-0.9c-1.1-0.6-1.9-1.5-2.5-2.5c-0.6-1.1-0.9-2.2-0.9-3.5s0.3-2.5,0.9-3.5s1.5-1.9,2.5-2.5c1.1-0.6,2.2-0.9,3.5-0.9
		c0.8,0,1.6,0.1,2.4,0.4c0.8,0.3,1.4,0.7,2.1,1.2c-0.7-3.4-2-6.6-3.9-9.6h2.4C299.6,11.3,300.6,13.7,301.3,16.2z M297.8,28.3
		c0.8-0.4,1.4-1,1.8-1.8c0.4-0.8,0.7-1.6,0.7-2.5v-0.1c0-0.9-0.2-1.7-0.7-2.5c-0.4-0.8-1.1-1.4-1.8-1.8s-1.6-0.7-2.5-0.7
		c-0.9,0-1.8,0.2-2.5,0.7s-1.4,1-1.8,1.8c-0.4,0.8-0.7,1.6-0.7,2.5s0.2,1.8,0.7,2.5c0.4,0.8,1,1.4,1.8,1.8s1.6,0.7,2.5,0.7
		S297,28.8,297.8,28.3z"/>
	<path d="M307.2,20.5c0.6-1.1,1.5-1.9,2.5-2.6c1.1-0.6,2.2-0.9,3.5-0.9s2.4,0.3,3.5,0.9c1.1,0.6,1.9,1.5,2.5,2.6
		c0.6,1.1,0.9,2.2,0.9,3.5v1h-11.8c0.1,0.7,0.4,1.4,0.9,2s1,1.1,1.7,1.4c0.7,0.3,1.4,0.5,2.2,0.5c0.7,0,1.3-0.1,1.9-0.4
		c0.6-0.2,1.2-0.6,1.7-1l1.4,1.4c-0.7,0.6-1.4,1.1-2.3,1.5c-0.9,0.4-1.8,0.5-2.7,0.5c-1.3,0-2.4-0.3-3.5-0.9
		c-1.1-0.6-1.9-1.5-2.5-2.6c-0.6-1.1-0.9-2.2-0.9-3.5C306.3,22.7,306.6,21.6,307.2,20.5z M318.1,23c-0.1-0.7-0.4-1.4-0.9-2
		c-0.5-0.6-1-1.1-1.7-1.4c-0.7-0.3-1.4-0.5-2.2-0.5s-1.5,0.2-2.2,0.5c-0.7,0.3-1.3,0.8-1.7,1.4s-0.7,1.3-0.9,2H318.1z M314.5,14
		h-2.4l3-6h2.4L314.5,14z"/>
	<path d="M330.1,14l-2.8-4.2l-2.8,4.2h-2.4l4-6h2.4l4,6H330.1z M328.8,27c0.4,0.6,0.8,1.1,1.5,1.5s1.3,0.5,2,0.5v2
		c-1.1,0-2.1-0.3-3-0.8s-1.7-1.3-2.2-2.2s-0.8-1.9-0.8-3v-6h-4v-2h6v8C328.3,25.7,328.4,26.4,328.8,27z"/>
	<path d="M337.7,30.1c-1.1-0.6-1.9-1.5-2.5-2.5c-0.6-1.1-0.9-2.2-0.9-3.5s0.3-2.5,0.9-3.5s1.5-1.9,2.5-2.5c1.1-0.6,2.2-0.9,3.5-0.9
		s2.5,0.3,3.5,0.9c1.1,0.6,1.9,1.5,2.5,2.5s0.9,2.2,0.9,3.5s-0.3,2.5-0.9,3.5c-0.6,1.1-1.5,1.9-2.5,2.5c-1.1,0.6-2.2,0.9-3.5,0.9
		S338.8,30.7,337.7,30.1z M343.8,28.3c0.8-0.4,1.4-1,1.8-1.8c0.4-0.8,0.7-1.6,0.7-2.5s-0.2-1.8-0.7-2.5c-0.4-0.8-1-1.4-1.8-1.8
		c-0.8-0.4-1.6-0.7-2.5-0.7s-1.8,0.2-2.5,0.7s-1.4,1-1.8,1.8c-0.4,0.8-0.7,1.6-0.7,2.5s0.2,1.8,0.7,2.5c0.4,0.8,1,1.4,1.8,1.8
		s1.6,0.7,2.5,0.7S343,28.8,343.8,28.3z M339.5,8l3,6h-2.4l-3-6H339.5z"/>
	<path d="M58.2,49v1c0,0.7-0.2,1.4-0.5,2s-0.8,1.1-1.5,1.5S55,54,54.2,54c-0.6,0-1.1-0.1-1.6-0.4c-0.5-0.2-1-0.5-1.2-0.9l-1.7-2.1
		c-0.3-0.4-0.8-0.6-1.4-0.6c-0.5,0-1,0.2-1.4,0.6c-0.4,0.4-0.6,0.9-0.6,1.4v1h-2v-1c0-0.7,0.2-1.4,0.5-2s0.8-1.1,1.5-1.5
		s1.3-0.5,2-0.5c0.6,0,1.1,0.1,1.6,0.4s1,0.5,1.2,0.9l1.7,2.1c0.4,0.4,0.8,0.6,1.4,0.6c0.5,0,1-0.2,1.4-0.6c0.4-0.4,0.6-0.9,0.6-1.4
		v-1H58.2z M54.3,57.8c0.9,0.5,1.6,1.3,2.2,2.2s0.8,1.9,0.8,3v8h-2v-8c0-0.7-0.2-1.4-0.5-2s-0.8-1.1-1.5-1.5c-0.6-0.4-1.3-0.5-2-0.5
		c-0.7,0-1.4,0.2-2,0.5c-0.6,0.4-1.1,0.8-1.5,1.5c-0.4,0.6-0.5,1.3-0.5,2v8h-2V57h1.5l0.2,1.9c0.5-0.6,1.2-1,1.9-1.4
		s1.6-0.5,2.4-0.5C52.3,57,53.3,57.3,54.3,57.8z"/>
	<path d="M74.2,57v8c0,1.1-0.3,2.1-0.8,3s-1.3,1.6-2.2,2.2s-1.9,0.8-3,0.8s-2.1-0.3-3-0.8s-1.6-1.3-2.2-2.2s-0.8-1.9-0.8-3v-8h2v8
		c0,0.7,0.2,1.4,0.5,2s0.8,1.1,1.5,1.5s1.3,0.5,2,0.5s1.4-0.2,2-0.5s1.1-0.8,1.5-1.5s0.5-1.3,0.5-2v-8H74.2z M66.2,48v6h-2v-6H66.2z
		 M72.2,48v6h-2v-6H72.2z"/>
	<path d="M97.8,52.7c2,1.2,3.6,2.7,4.7,4.7c1.2,2,1.8,4.2,1.8,6.5s-0.6,4.5-1.8,6.5c-1.2,2-2.7,3.6-4.7,4.7c-2,1.2-4.2,1.8-6.5,1.8
		s-4.5-0.6-6.5-1.8c-2-1.2-3.6-2.7-4.7-4.7c-1.2-2-1.8-4.2-1.8-6.5s0.6-4.5,1.8-6.5c1.2-2,2.7-3.6,4.7-4.7c2-1.2,4.2-1.8,6.5-1.8
		S95.8,51.6,97.8,52.7z M85.7,54.5c-1.7,1-3,2.3-4,4S80.2,62,80.2,64s0.5,3.8,1.5,5.5s2.3,3,4,4c1.7,1,3.5,1.5,5.5,1.5
		s3.8-0.5,5.5-1.5c1.7-1,3-2.3,4-4c1-1.7,1.5-3.5,1.5-5.5s-0.5-3.8-1.5-5.5c-1-1.7-2.3-3-4-4c-1.7-1-3.5-1.5-5.5-1.5
		S87.4,53.5,85.7,54.5z M93.2,59.4c-0.6-0.2-1.3-0.4-1.9-0.4c-0.9,0-1.7,0.2-2.5,0.7c-0.8,0.4-1.4,1.1-1.8,1.8s-0.7,1.6-0.7,2.5
		s0.2,1.7,0.7,2.5c0.4,0.8,1.1,1.4,1.8,1.8c0.8,0.4,1.6,0.7,2.5,0.7c0.7,0,1.3-0.1,1.9-0.4c0.6-0.2,1.2-0.6,1.7-1l1.4,1.4
		c-0.7,0.6-1.4,1.1-2.3,1.5c-0.9,0.4-1.8,0.5-2.7,0.5c-1.3,0-2.4-0.3-3.5-0.9c-1.1-0.6-1.9-1.5-2.6-2.6c-0.6-1.1-0.9-2.2-0.9-3.5
		c0-1.3,0.3-2.4,0.9-3.5c0.6-1.1,1.5-1.9,2.6-2.6c1.1-0.6,2.2-0.9,3.5-0.9c0.9,0,1.8,0.2,2.7,0.5c0.9,0.4,1.6,0.8,2.3,1.5l-1.4,1.4
		C94.4,60,93.8,59.6,93.2,59.4z"/>
	<path d="M133.2,65h-11.8c0.1,0.7,0.4,1.4,0.9,2s1,1.1,1.7,1.4c0.7,0.3,1.4,0.5,2.2,0.5c0.7,0,1.3-0.1,1.9-0.4
		c0.6-0.2,1.2-0.6,1.7-1l1.4,1.4c-0.7,0.6-1.4,1.1-2.3,1.5c-0.9,0.4-1.8,0.5-2.7,0.5c-1.3,0-2.4-0.3-3.5-0.9
		c-1.1-0.6-1.9-1.4-2.5-2.5c-0.6,1-1.5,1.9-2.5,2.5c-1.1,0.6-2.2,0.9-3.5,0.9h-2c-0.7,0-1.4-0.2-2-0.5s-1.1-0.8-1.5-1.5
		s-0.5-1.3-0.5-2s0.2-1.4,0.5-2s0.8-1.1,1.5-1.5s1.3-0.5,2-0.5h6.8c-0.1-0.8-0.4-1.4-0.9-2c-0.5-0.6-1-1.1-1.7-1.4S115,59,114.2,59
		c-1.2,0-2.4,0.5-3.6,1.4l-1.4-1.4c0.7-0.6,1.4-1.1,2.3-1.5c0.9-0.4,1.8-0.5,2.7-0.5c1.3,0,2.4,0.3,3.5,0.9c1.1,0.6,1.9,1.4,2.5,2.5
		c0.6-1,1.5-1.8,2.5-2.5c1.1-0.6,2.2-0.9,3.5-0.9c1.3,0,2.4,0.3,3.5,0.9c1.1,0.6,1.9,1.5,2.5,2.6c0.6,1.1,0.9,2.2,0.9,3.5V65z
		 M116.4,68.5c0.7-0.4,1.2-0.8,1.7-1.5c0.5-0.6,0.8-1.3,0.9-2h-6.8c-0.5,0-1,0.2-1.4,0.6c-0.4,0.4-0.6,0.9-0.6,1.4
		c0,0.5,0.2,1,0.6,1.4c0.4,0.4,0.9,0.6,1.4,0.6h2C115,69,115.8,68.8,116.4,68.5z M131,63c-0.1-0.7-0.4-1.4-0.9-2
		c-0.5-0.6-1-1.1-1.7-1.4c-0.7-0.3-1.4-0.5-2.2-0.5s-1.5,0.2-2.2,0.5c-0.7,0.3-1.3,0.8-1.7,1.4s-0.7,1.3-0.9,2H131z"/>
	<path d="M156.2,68.5c-0.7,1.4-1.7,2.6-2.9,3.5h4v2h-8v-2.1c1.1-0.3,2.2-0.8,3.1-1.6c0.9-0.8,1.6-1.7,2.1-2.8
		c0.5-1.1,0.8-2.3,0.8-3.5c0-1.5-0.4-2.8-1.1-4c-0.7-1.2-1.7-2.2-2.9-2.9c-1.2-0.7-2.6-1.1-4-1.1s-2.8,0.4-4,1.1
		c-1.2,0.7-2.2,1.7-2.9,2.9c-0.7,1.2-1.1,2.6-1.1,4c0,1.2,0.3,2.4,0.8,3.5c0.5,1.1,1.2,2,2.1,2.8c0.9,0.8,1.9,1.3,3.1,1.6V74h-8v-2
		h4c-1.2-0.9-2.2-2.1-2.9-3.5c-0.7-1.4-1.1-2.9-1.1-4.5c0-1.8,0.5-3.5,1.3-5c0.9-1.5,2.1-2.7,3.6-3.6c1.5-0.9,3.2-1.4,5-1.4
		s3.5,0.5,5,1.4s2.7,2.1,3.6,3.6c0.9,1.5,1.3,3.2,1.3,5C157.2,65.6,156.9,67.1,156.2,68.5z"/>
	<path d="M175.2,57v1.8c0,0.7-0.2,1.4-0.6,2c-0.4,0.6-0.9,1.1-1.5,1.5c-0.6,0.4-1.2,0.5-1.9,0.5c-0.5,0-1-0.1-1.5-0.3
		c-0.5-0.2-0.9-0.5-1.3-0.9l-1.8-1.8c-0.4-0.4-0.9-0.6-1.4-0.6c-0.5,0-0.9,0.2-1.3,0.6c-0.4,0.4-0.6,0.9-0.7,1.4V63h-2v-1.8
		c0-0.7,0.2-1.4,0.6-2s0.9-1.1,1.5-1.5c0.6-0.4,1.2-0.5,1.9-0.5c0.5,0,1,0.1,1.5,0.3c0.5,0.2,0.9,0.5,1.3,0.9l1.8,1.8
		c0.4,0.4,0.9,0.6,1.4,0.6c0.5,0,1-0.2,1.3-0.6c0.4-0.4,0.6-0.9,0.7-1.4V57H175.2z M173.2,65h2v1.8c0,0.7-0.2,1.4-0.6,2
		c-0.4,0.6-0.9,1.1-1.5,1.5c-0.6,0.4-1.2,0.5-1.9,0.5c-0.5,0-1-0.1-1.5-0.3c-0.5-0.2-0.9-0.5-1.3-0.9l-1.8-1.8
		c-0.4-0.4-0.9-0.6-1.4-0.6c-0.5,0-0.9,0.2-1.3,0.6c-0.4,0.4-0.6,0.9-0.7,1.4V71h-2v-1.8c0-0.7,0.2-1.4,0.6-2s0.9-1.1,1.5-1.5
		c0.6-0.4,1.2-0.5,1.9-0.5c0.5,0,1,0.1,1.5,0.3c0.5,0.2,0.9,0.5,1.3,0.9l1.8,1.8c0.4,0.4,0.9,0.6,1.4,0.6c0.5,0,1-0.2,1.3-0.6
		c0.4-0.4,0.6-0.9,0.7-1.4V65z"/>
	<path d="M191.8,68.4c0.4,0.4,0.9,0.5,1.5,0.5v2c-0.8,0-1.5-0.2-2.1-0.5c-0.6-0.3-1.1-0.8-1.4-1.5c-0.6,0.6-1.2,1.1-2,1.5
		c-0.8,0.4-1.6,0.5-2.5,0.5c-0.8,0-1.5-0.1-2.2-0.4s-1.3-0.6-1.8-1.1V77h-2V57h2v8c0,0.7,0.2,1.4,0.5,2s0.8,1.1,1.5,1.5
		s1.3,0.5,2,0.5s1.4-0.2,2-0.5s1.1-0.8,1.5-1.5s0.5-1.3,0.5-2v-8h2v10C191.2,67.6,191.4,68.1,191.8,68.4z"/>
	<path d="M197.2,65.9l12-3.9l-12-3.9V56l14,4.8v2.4l-14,4.8V65.9z M211.2,72h-14v-2h14V72z"/>
	<path d="M231.2,54v20h-2l-12-16.6V74h-2V54h2l12,16.5V54H231.2z M230.2,46v1c0,0.7-0.2,1.4-0.5,2s-0.8,1.1-1.5,1.5s-1.3,0.5-2,0.5
		c-0.6,0-1.1-0.1-1.7-0.4c-0.5-0.2-1-0.5-1.2-0.9l-1.7-2.1c-0.3-0.4-0.8-0.6-1.4-0.6c-0.5,0-1,0.2-1.4,0.6c-0.4,0.4-0.6,0.9-0.6,1.4
		v1h-2v-1c0-0.7,0.2-1.4,0.5-2s0.8-1.1,1.5-1.5s1.3-0.5,2-0.5c0.6,0,1.1,0.1,1.7,0.4s1,0.5,1.2,0.9l1.7,2.1c0.4,0.4,0.8,0.6,1.4,0.6
		c0.5,0,1-0.2,1.4-0.6c0.4-0.4,0.6-0.9,0.6-1.4v-1H230.2z"/>
	<path d="M242.8,62l-1.1,4h5.5v2h-6l-1.4,5h-2.1l1.4-5h-3.9v-2h4.4l1.1-4h-5.5v-2h6l1.4-5h2.1l-1.4,5h3.9v2H242.8z"/>
	<path d="M251.8,57c0.4-0.6,0.8-1.1,1.5-1.5s1.3-0.5,2-0.5s1.4,0.2,2,0.5s1.1,0.8,1.5,1.5s0.5,1.3,0.5,2s-0.2,1.4-0.5,2
		s-0.8,1.1-1.5,1.5s-1.3,0.5-2,0.5s-1.4-0.2-2-0.5s-1.1-0.8-1.5-1.5s-0.5-1.3-0.5-2S251.4,57.6,251.8,57z M253.8,60.4
		c0.4,0.4,0.9,0.6,1.4,0.6s1-0.2,1.4-0.6c0.4-0.4,0.6-0.9,0.6-1.4c0-0.5-0.2-1-0.6-1.4c-0.4-0.4-0.9-0.6-1.4-0.6s-1,0.2-1.4,0.6
		c-0.4,0.4-0.6,0.9-0.6,1.4C253.2,59.5,253.4,60,253.8,60.4z M264.2,55h2.4l-10.4,18h-2.4L264.2,55z M261.8,67
		c0.4-0.6,0.8-1.1,1.5-1.5s1.3-0.5,2-0.5s1.4,0.2,2,0.5s1.1,0.8,1.5,1.5s0.5,1.3,0.5,2s-0.2,1.4-0.5,2s-0.8,1.1-1.5,1.5
		s-1.3,0.5-2,0.5s-1.4-0.2-2-0.5s-1.1-0.8-1.5-1.5s-0.5-1.3-0.5-2S261.4,67.6,261.8,67z M263.8,70.4c0.4,0.4,0.9,0.6,1.4,0.6
		s1-0.2,1.4-0.6c0.4-0.4,0.6-0.9,0.6-1.4c0-0.5-0.2-1-0.6-1.4c-0.4-0.4-0.9-0.6-1.4-0.6s-1,0.2-1.4,0.6c-0.4,0.4-0.6,0.9-0.6,1.4
		C263.2,69.5,263.4,70,263.8,70.4z M271.8,67c0.4-0.6,0.8-1.1,1.5-1.5s1.3-0.5,2-0.5s1.4,0.2,2,0.5s1.1,0.8,1.5,1.5s0.5,1.3,0.5,2
		s-0.2,1.4-0.5,2s-0.8,1.1-1.5,1.5s-1.3,0.5-2,0.5s-1.4-0.2-2-0.5s-1.1-0.8-1.5-1.5s-0.5-1.3-0.5-2S271.4,67.6,271.8,67z
		 M273.8,70.4c0.4,0.4,0.9,0.6,1.4,0.6s1-0.2,1.4-0.6c0.4-0.4,0.6-0.9,0.6-1.4c0-0.5-0.2-1-0.6-1.4c-0.4-0.4-0.9-0.6-1.4-0.6
		s-1,0.2-1.4,0.6c-0.4,0.4-0.6,0.9-0.6,1.4C273.2,69.5,273.4,70,273.8,70.4z"/>
	<path d="M295.2,73c0,1.1-0.3,2.1-0.8,3c-0.5,0.9-1.3,1.6-2.2,2.2s-1.9,0.8-3,0.8c-1.1,0-2.1-0.3-3-0.8c-0.9-0.5-1.6-1.3-2.2-2.2
		c-0.5-0.9-0.8-1.9-0.8-3c0-1,0.2-1.9,0.7-2.7c0.4-0.8,1-1.5,1.8-2.1s1.6-0.9,2.5-1.1V64h2v5h-1c-0.7,0-1.4,0.2-2,0.5
		c-0.6,0.4-1.1,0.8-1.5,1.5c-0.4,0.6-0.5,1.3-0.5,2c0,0.7,0.2,1.4,0.5,2c0.4,0.6,0.8,1.1,1.5,1.5c0.6,0.4,1.3,0.5,2,0.5
		c0.7,0,1.4-0.2,2-0.5s1.1-0.8,1.5-1.5s0.5-1.3,0.5-2H295.2z M287.8,60.4c-0.4-0.4-0.6-0.9-0.6-1.4c0-0.5,0.2-1,0.6-1.4
		c0.4-0.4,0.9-0.6,1.4-0.6s1,0.2,1.4,0.6c0.4,0.4,0.6,0.9,0.6,1.4c0,0.5-0.2,1-0.6,1.4c-0.4,0.4-0.9,0.6-1.4,0.6
		S288.2,60.8,287.8,60.4z"/>
	<path d="M308.7,57.5c0.4,0.7,0.6,1.5,0.6,2.5s-0.2,1.7-0.7,2.5c-0.4,0.8-1.1,1.4-1.8,1.8s-1.6,0.7-2.5,0.7c-0.9,0-1.7-0.2-2.5-0.7
		c-0.8-0.4-1.4-1.1-1.8-1.8c-0.4-0.8-0.7-1.6-0.7-2.5h2c0,0.5,0.1,1,0.4,1.5c0.3,0.5,0.6,0.8,1.1,1.1s1,0.4,1.5,0.4s1-0.1,1.5-0.4
		s0.8-0.6,1.1-1.1c0.3-0.5,0.4-1,0.4-1.5c0-0.9-0.3-1.6-0.8-2.2c-0.6-0.6-1.3-0.8-2.2-0.8h-1v-2h1c0.5,0,1-0.2,1.4-0.6
		c0.4-0.4,0.6-0.9,0.6-1.4c0-0.5-0.2-1-0.6-1.4c-0.4-0.4-0.9-0.6-1.4-0.6s-1,0.2-1.4,0.6c-0.4,0.4-0.6,0.9-0.6,1.4h-2
		c0-0.7,0.2-1.4,0.5-2s0.8-1.1,1.5-1.5s1.3-0.5,2-0.5s1.4,0.2,2,0.5s1.1,0.8,1.5,1.5s0.5,1.3,0.5,2c0,0.5-0.1,1-0.3,1.5
		c-0.2,0.5-0.5,0.9-0.9,1.3C307.8,56.2,308.3,56.8,308.7,57.5z M325.6,54.2l-21.2,21.2l-1.6-1.6L324,52.6L325.6,54.2z M319.2,73
		l6-10h2v10h2v2h-2v4h-2v-4h-6V73z M325.2,73v-6.2l-3.7,6.2H325.2z"/>
	<path d="M351,57.8c0.7,0.9,1.2,1.9,1.6,2.9s0.6,2.2,0.6,3.3c0,1.8-0.5,3.5-1.3,5c-0.9,1.5-2.1,2.8-3.7,3.6s-3.2,1.4-5,1.4
		c-1.2,0-2.3-0.2-3.4-0.6c-1.1-0.4-2.1-1-2.9-1.7l-2.2,2.2l-1.5-1.5l2.2-2.2c-0.7-0.9-1.2-1.9-1.6-2.9s-0.6-2.2-0.6-3.3
		c0-1.8,0.5-3.5,1.3-5c0.9-1.5,2.1-2.8,3.7-3.6s3.2-1.4,5-1.4c1.2,0,2.3,0.2,3.4,0.6c1.1,0.4,2.1,1,2.9,1.7l2.2-2.2l1.5,1.5
		L351,57.8z M335.7,66.6c0.3,0.8,0.7,1.6,1.2,2.2l11.3-11.1c-0.7-0.5-1.4-0.9-2.3-1.2c-0.8-0.3-1.7-0.4-2.6-0.4
		c-1.4,0-2.8,0.4-4,1.1c-1.2,0.7-2.2,1.7-2.9,2.9c-0.7,1.2-1.1,2.6-1.1,4C335.2,64.9,335.4,65.7,335.7,66.6z M350.8,61.4
		c-0.3-0.8-0.7-1.6-1.2-2.2l-11.3,11.1c0.7,0.5,1.4,0.9,2.3,1.2c0.8,0.3,1.7,0.4,2.6,0.4c1.4,0,2.8-0.4,4-1.1
		c1.2-0.7,2.2-1.7,2.9-2.9c0.7-1.2,1.1-2.6,1.1-4C351.2,63.1,351.1,62.2,350.8,61.4z"/>
	<path d="M38.7,103.7c0.8,0.4,1.5,1.1,1.9,1.9c0.4,0.8,0.7,1.8,0.7,2.8c0,1.1-0.2,2.1-0.7,2.9c-0.4,0.8-1.1,1.5-1.9,2
		c-0.8,0.5-1.8,0.7-2.8,0.7H24.2v-2h3V96h-3v-2h15v2h-10v7h6.6C36.9,103,37.9,103.2,38.7,103.7z M38.3,111c0.6-0.7,0.9-1.5,0.9-2.6
		c0-1-0.3-1.9-0.9-2.5c-0.6-0.6-1.4-0.9-2.5-0.9h-6.6v7h6.6C36.9,112,37.7,111.7,38.3,111z"/>
	<path d="M61.2,99h-2v-3h-10v16h3v2h-8v-2h3V96h-3v-2h17V99z"/>
	<path d="M80.2,96v16h3v7h-2v-5h-17v5h-2v-7h2c0.8,0,1.5-0.3,2.1-0.9c0.6-0.6,1.1-1.4,1.4-2.5c0.3-1.1,0.5-2.3,0.5-3.6v-9h-3v-2h18
		v2H80.2z M78.2,96h-8v9c0,1.5-0.2,2.8-0.5,4s-0.9,2.2-1.5,3h10.1V96z"/>
	<path d="M103.3,104l10.9,10h-3l-10-9.1v9.1h-2v-9.1l-10,9.1h-3l10.9-10L86.2,94h3l10,9.1V94h2v9.1l10-9.1h3L103.3,104z"/>
	<path d="M128.5,105.1c0.5,0.9,0.8,1.9,0.8,2.9c0,1.1-0.3,2.1-0.8,3s-1.3,1.6-2.2,2.2s-1.9,0.8-3,0.8c-0.8,0-1.5-0.1-2.2-0.4
		c-0.7-0.3-1.3-0.6-1.8-1.1v1.5h-2v-6h2c0,0.7,0.2,1.4,0.5,2s0.8,1.1,1.5,1.5s1.3,0.5,2,0.5s1.4-0.2,2-0.5s1.1-0.8,1.5-1.5
		s0.5-1.3,0.5-2s-0.2-1.4-0.5-2s-0.8-1.1-1.5-1.5s-1.3-0.5-2-0.5h-1v-2h1c0.6,0,1.1-0.1,1.5-0.4c0.5-0.3,0.8-0.6,1.1-1.1
		c0.3-0.5,0.4-1,0.4-1.5s-0.1-1.1-0.4-1.5c-0.3-0.5-0.6-0.8-1.1-1.1c-0.5-0.3-1-0.4-1.5-0.4s-1.1,0.1-1.5,0.4
		c-0.5,0.3-0.8,0.6-1.1,1.1c-0.3,0.5-0.4,1-0.4,1.5h-2v-5h2v1c0.9-0.7,1.9-1,3-1c0.9,0,1.8,0.2,2.5,0.7c0.8,0.4,1.4,1,1.8,1.8
		c0.4,0.8,0.7,1.6,0.7,2.5c0,0.8-0.2,1.5-0.5,2.2c-0.3,0.7-0.8,1.2-1.3,1.7C127.3,103.4,128,104.2,128.5,105.1z"/>
	<path d="M151.2,96v16h3v2h-8v-2h3V97.4l-12,16.6h-2V96h-3v-2h8v2h-3v14.5l12-16.5h5v2H151.2z M140.2,86c0,0.6,0.1,1.1,0.4,1.5
		c0.3,0.5,0.6,0.8,1.1,1.1c0.5,0.3,1,0.4,1.5,0.4s1.1-0.1,1.5-0.4c0.5-0.3,0.8-0.6,1.1-1.1c0.3-0.5,0.4-1,0.4-1.5h2
		c0,0.9-0.2,1.8-0.7,2.5c-0.4,0.8-1,1.4-1.8,1.8c-0.8,0.4-1.6,0.7-2.5,0.7s-1.8-0.2-2.5-0.7s-1.4-1-1.8-1.8
		c-0.4-0.8-0.7-1.6-0.7-2.5H140.2z"/>
	<path d="M174.2,96v16h3v2h-8v-2h3V96h-8v9c0,1.7-0.3,3.3-0.8,4.6c-0.5,1.4-1.2,2.4-2.1,3.2c-0.9,0.8-2,1.1-3.1,1.1v-2
		c0.8,0,1.5-0.3,2.1-0.9c0.6-0.6,1.1-1.4,1.4-2.5s0.5-2.3,0.5-3.6v-9h-3v-2h18v2H174.2z"/>
	<path d="M197.2,94v6h-2v-2.2c-0.7-0.6-1.4-1-2.3-1.3c-0.9-0.3-1.8-0.5-2.7-0.5c-1.5,0-2.8,0.4-4,1.1c-1.2,0.7-2.2,1.7-2.9,2.9
		c-0.7,1.2-1.1,2.6-1.1,4c0,1.5,0.4,2.8,1.1,4c0.7,1.2,1.7,2.2,2.9,2.9c1.2,0.7,2.6,1.1,4,1.1c0.9,0,1.8-0.2,2.7-0.5
		c0.9-0.3,1.6-0.8,2.3-1.3V108h2v6h-2v-1.4c-1.5,0.9-3.2,1.4-5,1.4s-3.5-0.5-5-1.4c-1.5-0.9-2.7-2.1-3.6-3.6c-0.9-1.5-1.3-3.2-1.3-5
		c0-1.8,0.5-3.5,1.3-5c0.9-1.5,2.1-2.7,3.6-3.6c1.5-0.9,3.2-1.4,5-1.4s3.5,0.5,5,1.4V94H197.2z"/>
	<path d="M217.2,99h-2v-3h-5v16h3v2h-8v-2h3V96h-5v3h-2v-5h16V99z"/>
	<path d="M234.2,94l-10,20H222l4.1-8.2L220.2,94h2.2l4.8,9.5L232,94H234.2z"/>
	<path d="M254.2,96v16h3v7h-2v-5h-18v-2h3V96h-3v-2h8v2h-3v16h10V96h-3v-2h8v2H254.2z"/>
	<path d="M275.2,112h3v2h-8v-2h3v-6.3c-0.5,0.4-1,0.7-1.6,0.9c-0.6,0.2-1.2,0.3-1.9,0.3c-1,0-1.9-0.2-2.7-0.8s-1.5-1.2-2-2
		c-0.5-0.8-0.8-1.8-0.8-2.7V96h-3v-2h7v2h-2v5.5c0,0.6,0.2,1.2,0.5,1.7c0.3,0.5,0.7,1,1.3,1.3s1.1,0.5,1.7,0.5s1.2-0.2,1.7-0.5
		s1-0.7,1.3-1.3c0.3-0.5,0.5-1.1,0.5-1.7V96h-2v-2h7v2h-3V112z"/>
	<path d="M305.2,96v16h3v7h-2v-5h-24v-2h3V96h-3v-2h7v2h-2v16h7V96h-2v-2h6v2h-2v16h7V96h-2v-2h7v2H305.2z"/>
	<path d="M323.5,103.7c0.8,0.5,1.5,1.2,2,2c0.5,0.8,0.8,1.8,0.8,2.7c0,1-0.2,1.9-0.8,2.7c-0.5,0.8-1.2,1.5-2,2s-1.8,0.8-2.7,0.8
		h-8.5v-2h3V96h-3v-2h8v2h-3v7h3.5C321.7,103,322.6,103.2,323.5,103.7z M322.5,111.5c0.5-0.3,1-0.7,1.3-1.3c0.3-0.5,0.5-1.1,0.5-1.7
		c0-0.6-0.2-1.2-0.5-1.7c-0.3-0.5-0.7-1-1.3-1.3s-1.1-0.5-1.7-0.5h-3.5v7h3.5C321.4,112,322,111.8,322.5,111.5z"/>
	<path d="M351.2,95.3c1.5,0.9,2.8,2.1,3.7,3.6c0.9,1.5,1.3,3.2,1.3,5s-0.5,3.5-1.3,5c-0.9,1.5-2.1,2.8-3.7,3.6s-3.2,1.4-5,1.4
		c-1.7,0-3.3-0.4-4.7-1.2c-1.5-0.8-2.7-1.9-3.6-3.3c-0.9-1.4-1.5-2.9-1.7-4.5h-3v7h3v2h-8v-2h3V96h-3v-2h8v2h-3v7h3
		c0.2-1.7,0.7-3.2,1.7-4.5c0.9-1.4,2.1-2.5,3.6-3.3c1.5-0.8,3-1.2,4.7-1.2C348,94,349.7,94.4,351.2,95.3z M350.2,110.9
		c1.2-0.7,2.2-1.7,2.9-2.9c0.7-1.2,1.1-2.6,1.1-4s-0.4-2.8-1.1-4c-0.7-1.2-1.7-2.2-2.9-2.9c-1.2-0.7-2.6-1.1-4-1.1s-2.8,0.4-4,1.1
		c-1.2,0.7-2.2,1.7-2.9,2.9c-0.7,1.2-1.1,2.6-1.1,4s0.4,2.8,1.1,4c0.7,1.2,1.7,2.2,2.9,2.9c1.2,0.7,2.6,1.1,4,1.1
		S349,111.6,350.2,110.9z"/>
	<path d="M371.2,96v16h3v2h-8v-2h3v-7h-3.4l-5.2,9h-2.3l5.3-9.1c-0.8-0.2-1.6-0.5-2.2-1c-0.7-0.5-1.2-1.2-1.6-2
		c-0.4-0.8-0.6-1.6-0.6-2.5c0-0.9,0.2-1.8,0.7-2.7c0.5-0.8,1.2-1.5,2-2c0.8-0.5,1.7-0.7,2.7-0.7h9.6v2H371.2z M369.2,96h-4.6
		c-0.6,0-1.1,0.2-1.7,0.5c-0.5,0.3-0.9,0.7-1.3,1.3c-0.3,0.5-0.5,1.1-0.5,1.7c0,0.7,0.2,1.3,0.5,1.8c0.3,0.6,0.7,1,1.3,1.3
		c0.5,0.3,1.1,0.5,1.7,0.5h4.6V96z"/>
	<path d="M55.3,137.9c1.1,0.6,1.9,1.5,2.5,2.5c0.6,1.1,0.9,2.2,0.9,3.5s-0.3,2.5-0.9,3.5c-0.6,1.1-1.5,1.9-2.5,2.5S53,151,51.8,151
		s-2.5-0.3-3.5-0.9c-1.1-0.6-1.9-1.5-2.5-2.5c-0.6-1.1-0.9-2.2-0.9-3.5v-6c0-1.4,0.3-2.6,0.9-3.7c0.6-1.1,1.4-1.9,2.5-2.5
		s2.3-0.9,3.7-0.9c1.2,0,2.4-0.5,3.6-1.4l1.4,1.4c-0.7,0.6-1.4,1.1-2.3,1.5c-0.9,0.3-1.8,0.5-2.7,0.5c-1,0-1.9,0.2-2.6,0.6
		c-0.8,0.4-1.3,1-1.8,1.8c-0.4,0.8-0.6,1.6-0.6,2.6v1.1c0.6-0.7,1.4-1.2,2.3-1.5c0.9-0.4,1.8-0.5,2.7-0.5
		C53,137,54.2,137.3,55.3,137.9z M54.3,148.3c0.8-0.4,1.4-1,1.8-1.8s0.7-1.6,0.7-2.5s-0.2-1.8-0.7-2.5c-0.4-0.8-1-1.4-1.8-1.8
		c-0.8-0.4-1.6-0.7-2.5-0.7s-1.8,0.2-2.5,0.7c-0.8,0.4-1.4,1-1.8,1.8c-0.4,0.8-0.7,1.6-0.7,2.5s0.2,1.8,0.7,2.5s1,1.4,1.8,1.8
		c0.8,0.4,1.6,0.7,2.5,0.7S53.5,148.8,54.3,148.3z"/>
	<path d="M72.2,145c0.4,0.6,0.5,1.3,0.5,2c0,0.7-0.2,1.4-0.5,2s-0.8,1.1-1.5,1.5s-1.3,0.5-2,0.5h-6v-14h5c0.7,0,1.4,0.2,2,0.5
		s1.1,0.8,1.5,1.5s0.5,1.3,0.5,2c0,1-0.3,1.8-0.9,2.6C71.4,143.9,71.9,144.4,72.2,145z M64.8,143h3c0.5,0,1-0.2,1.4-0.6
		c0.4-0.4,0.6-0.9,0.6-1.4s-0.2-1-0.6-1.4c-0.4-0.4-0.9-0.6-1.4-0.6h-3V143z M70.2,148.4c0.4-0.4,0.6-0.9,0.6-1.4s-0.2-1-0.6-1.4
		c-0.4-0.4-0.9-0.6-1.4-0.6h-4v4h4C69.3,149,69.8,148.8,70.2,148.4z"/>
	<path d="M86.8,139h-8v12h-2v-14h10V139z"/>
	<path d="M101.8,155h-2v-4h-12v4h-2v-6h2c0.7,0,1.4-0.2,2-0.5s1.1-0.8,1.5-1.5s0.5-1.3,0.5-2v-8h10V155z M99.8,139h-6v6
		c0,0.8-0.1,1.5-0.4,2.2c-0.3,0.7-0.6,1.3-1.1,1.8h7.5V139z"/>
	<path d="M118.8,144l8,7h-3l-7-6.1v6.1h-2v-6.1l-7,6.1h-3l8-7l-8-7h3l7,6.1V137h2v6.1l7-6.1h3L118.8,144z"/>
	<path d="M141.4,145.3c0.2,0.5,0.4,1.1,0.4,1.7c0,0.7-0.2,1.4-0.5,2s-0.8,1.1-1.5,1.5s-1.3,0.5-2,0.5h-4c-0.7,0-1.4-0.2-2-0.5
		s-1.1-0.8-1.5-1.5s-0.5-1.3-0.5-2h2c0,0.5,0.2,1,0.6,1.4s0.9,0.6,1.4,0.6h4c0.5,0,1-0.2,1.4-0.6c0.4-0.4,0.6-0.9,0.6-1.4
		s-0.2-1-0.6-1.4c-0.4-0.4-0.9-0.6-1.4-0.6h-4v-2h4c0.5,0,1-0.2,1.4-0.6c0.4-0.4,0.6-0.9,0.6-1.4s-0.2-1-0.6-1.4
		c-0.4-0.4-0.9-0.6-1.4-0.6h-4c-0.5,0-1,0.2-1.4,0.6c-0.4,0.4-0.6,0.9-0.6,1.4h-2c0-0.7,0.2-1.4,0.5-2s0.8-1.1,1.5-1.5
		s1.3-0.5,2-0.5h4c0.7,0,1.4,0.2,2,0.5s1.1,0.8,1.5,1.5s0.5,1.3,0.5,2c0,0.6-0.1,1.1-0.4,1.7c-0.2,0.5-0.6,1-1,1.3
		C140.8,144.4,141.1,144.8,141.4,145.3z"/>
	<path d="M158.7,137v14h-2v-10.7l-8,10.7h-2v-14h2v10.6l8-10.6H158.7z"/>
	<path d="M176.7,151h-2v-12h-6v6c0,1.1-0.3,2.1-0.8,3s-1.3,1.7-2.2,2.2s-1.9,0.8-3,0.8v-2c0.7,0,1.4-0.2,2-0.5s1.1-0.8,1.5-1.5
		s0.5-1.3,0.5-2v-8h10V151z"/>
	<path d="M192.7,151h-2v-12h-7v12h-2v-14h11V151z"/>
	<path d="M206.7,139h-4v12h-2v-12h-4v-2h10V139z"/>
	<path d="M221.3,137.9c1.1,0.6,1.9,1.5,2.5,2.5s0.9,2.2,0.9,3.5s-0.3,2.5-0.9,3.5s-1.5,1.9-2.5,2.5s-2.2,0.9-3.5,0.9v4h-2v-4
		c-1.3,0-2.5-0.3-3.5-0.9s-1.9-1.5-2.5-2.5s-0.9-2.2-0.9-3.5s0.3-2.5,0.9-3.5s1.5-1.9,2.5-2.5s2.2-0.9,3.5-0.9v-4h2v4
		C219,137,220.2,137.3,221.3,137.9z M211.4,146.5c0.4,0.8,1,1.4,1.8,1.8c0.8,0.4,1.6,0.7,2.5,0.7v-10c-0.9,0-1.8,0.2-2.5,0.7
		c-0.8,0.4-1.4,1-1.8,1.8c-0.4,0.8-0.7,1.6-0.7,2.5S211,145.8,211.4,146.5z M220.3,148.3c0.8-0.4,1.4-1,1.8-1.8
		c0.4-0.8,0.7-1.6,0.7-2.5s-0.2-1.8-0.7-2.5c-0.4-0.8-1-1.4-1.8-1.8c-0.8-0.4-1.6-0.7-2.5-0.7v10C218.7,149,219.5,148.8,220.3,148.3
		z"/>
	<path d="M242.7,149v6h-2v-4h-12v-14h2v12h8v-12h2v12H242.7z"/>
	<path d="M254.7,137v14h-2v-6.5c-0.9,0.7-1.9,1-3,1c-0.9,0-1.7-0.2-2.5-0.7c-0.8-0.4-1.4-1.1-1.8-1.8c-0.4-0.8-0.7-1.6-0.7-2.5V137
		h2v3.5c0,0.5,0.1,1,0.4,1.5c0.3,0.5,0.6,0.8,1.1,1.1c0.5,0.3,1,0.4,1.5,0.4s1-0.1,1.5-0.4c0.5-0.3,0.8-0.6,1.1-1.1s0.4-1,0.4-1.5
		V137H254.7z"/>
	<path d="M277.7,137v14h-18v-14h2v12h6v-12h2v12h6v-12H277.7z"/>
	<path d="M302.7,155h-2v-4h-18v-14h2v12h6v-12h2v12h6v-12h2v12h2V155z"/>
	<path d="M314.7,143.5c0.6,0.4,1.1,0.8,1.5,1.5s0.5,1.3,0.5,2s-0.2,1.4-0.5,2s-0.8,1.1-1.5,1.5s-1.3,0.5-2,0.5h-6v-14h2v6h4
		C313.5,143,314.1,143.2,314.7,143.5z M314.2,148.4c0.4-0.4,0.6-0.9,0.6-1.4s-0.2-1-0.6-1.4c-0.4-0.4-0.9-0.6-1.4-0.6h-4v4h4
		C313.3,149,313.8,148.8,314.2,148.4z"/>
	<path d="M336.3,137.9c1.1,0.6,1.9,1.5,2.5,2.5s0.9,2.2,0.9,3.5s-0.3,2.5-0.9,3.5s-1.5,1.9-2.5,2.5s-2.2,0.9-3.5,0.9
		c-1.2,0-2.3-0.3-3.3-0.8c-1-0.5-1.8-1.2-2.5-2.1c-0.6-0.9-1-1.9-1.2-3.1h-3.1v6h-2v-14h2v6h3.1c0.2-1.1,0.6-2.2,1.2-3.1
		c0.6-0.9,1.5-1.6,2.5-2.1c1-0.5,2.1-0.8,3.3-0.8C334,137,335.2,137.3,336.3,137.9z M335.3,148.3c0.8-0.4,1.4-1,1.8-1.8
		c0.4-0.8,0.7-1.6,0.7-2.5s-0.2-1.8-0.7-2.5c-0.4-0.8-1-1.4-1.8-1.8c-0.8-0.4-1.6-0.7-2.5-0.7s-1.8,0.2-2.5,0.7
		c-0.8,0.4-1.4,1-1.8,1.8c-0.4,0.8-0.7,1.6-0.7,2.5s0.2,1.8,0.7,2.5c0.4,0.8,1,1.4,1.8,1.8c0.8,0.4,1.6,0.7,2.5,0.7
		S334.5,148.8,335.3,148.3z"/>
	<path d="M353.7,151h-2v-6H349l-3.4,6h-2.4l3.5-6.1c-0.9-0.2-1.6-0.7-2.1-1.4c-0.5-0.7-0.8-1.5-0.8-2.4c0-0.7,0.2-1.4,0.5-2
		s0.8-1.1,1.5-1.5s1.3-0.5,2-0.5h6V151z M351.7,139h-4c-0.5,0-1,0.2-1.4,0.6c-0.4,0.4-0.6,0.9-0.6,1.4s0.2,1,0.6,1.4
		s0.9,0.6,1.4,0.6h4V139z"/>
	<path d="M67.8,192v2h-6.2v-2h2.2l-1.6-4h-8.8l-1.6,4H54v2h-6.2v-2h1.8l6.4-16h-2.2v-2h8v2h-2.2l6.4,16H67.8z M61.4,186l-3.6-9
		l-3.6,9H61.4z"/>
	<path d="M87.8,179h-2v-3h-10v16h3v2h-8v-2h3v-16h-3v-2h17V179z"/>
	<path d="M104.8,194h-18l8-20h2L104.8,194z M101.8,192l-6-15l-6,15H101.8z"/>
	<path d="M111.8,192.7c-1.5-0.9-2.8-2.1-3.7-3.7s-1.4-3.2-1.4-5s0.5-3.5,1.4-5s2.1-2.8,3.7-3.7c1.5-0.9,3.2-1.3,5-1.3
		c1.8,0,3.5,0.5,5,1.3c1.5,0.9,2.8,2.1,3.7,3.7c0.9,1.5,1.3,3.2,1.3,5s-0.5,3.5-1.3,5c-0.9,1.5-2.1,2.8-3.7,3.7
		c-1.5,0.9-3.2,1.3-5,1.3C114.9,194,113.3,193.6,111.8,192.7z M120.8,190.9c1.2-0.7,2.2-1.7,2.9-2.9c0.7-1.2,1.1-2.6,1.1-4
		s-0.4-2.8-1.1-4c-0.7-1.2-1.7-2.2-2.9-2.9s-2.6-1.1-4-1.1c-1.4,0-2.8,0.4-4,1.1c-1.2,0.7-2.2,1.7-2.9,2.9c-0.7,1.2-1.1,2.6-1.1,4
		s0.4,2.8,1.1,4c0.7,1.2,1.7,2.2,2.9,2.9c1.2,0.7,2.6,1.1,4,1.1C118.2,192,119.5,191.6,120.8,190.9z M122.8,183v2h-12v-2H122.8z"/>
	<path d="M137.2,176v16h6.5v2h-15v-2h6.5v-16h-6.5v-2h15v2H137.2z"/>
	<path d="M155.7,177l-6.8,17h-2.2l8-20h2l8,20h-2.2L155.7,177z"/>
	<path d="M189.7,176h-3v18h-2l-12-16.6V192h3v2h-8v-2h3v-16h-3v-2h5l12,16.5V176h-3v-2h8V176z"/>
	<path d="M209.7,174v5h-2v-3h-12v3h-2v-5H209.7z M207.7,189h2v5h-16v-5h2v3h12V189z M206.7,183v2h-10v-2H206.7z"/>
	<path d="M230.7,176v16h3v2h-8v-2h3v-16h-10v16h3v2h-8v-2h3v-16h-3v-2h20v2H230.7z"/>
	<path d="M251.7,174v5h-2v-3h-9.6l4.6,8l-4.6,8h9.6v-2h2v4h-14v-2l4.6-8l-4.6-8v-2H251.7z"/>
	<path d="M265.7,184.3v7.7h3v2h-8v-2h3v-7.7l-5.6-8.3h-2.4v-2h6.4v2h-1.6l4.2,6.2l4.2-6.2h-1.6v-2h6.4v2h-2.4L265.7,184.3z"/>
	<path d="M291.2,176.2c1.4,0.8,2.5,1.9,3.3,3.3c0.8,1.4,1.2,2.9,1.2,4.5c0,1.6-0.4,3.1-1.2,4.5c-0.8,1.4-1.9,2.5-3.3,3.3
		c-1.4,0.8-2.9,1.2-4.5,1.2v3h-2v-3c-1.6,0-3.1-0.4-4.5-1.2c-1.4-0.8-2.5-1.9-3.3-3.3c-0.8-1.4-1.2-2.9-1.2-4.5
		c0-1.6,0.4-3.1,1.2-4.5c0.8-1.4,1.9-2.5,3.3-3.3s2.9-1.2,4.5-1.2v-3h2v3C288.4,175,289.9,175.4,291.2,176.2z M278.7,187.5
		c0.6,1.1,1.5,1.9,2.6,2.6s2.2,1,3.5,1v-14c-1.3,0-2.4,0.3-3.5,0.9c-1.1,0.6-1.9,1.5-2.6,2.5c-0.6,1.1-1,2.2-1,3.5
		C277.7,185.2,278.1,186.4,278.7,187.5z M290.2,190c1.1-0.6,1.9-1.5,2.6-2.6s1-2.2,1-3.5c0-1.3-0.3-2.5-1-3.5
		c-0.6-1.1-1.5-1.9-2.6-2.5c-1.1-0.6-2.2-0.9-3.5-0.9v14C288,191,289.1,190.7,290.2,190z"/>
	<path d="M327.7,176h-3v5c0,1.8-0.5,3.5-1.3,5c-0.9,1.5-2.1,2.8-3.7,3.7c-1.5,0.9-3.2,1.3-5,1.3v3h-2v-3c-1.8,0-3.5-0.5-5-1.3
		c-1.5-0.9-2.8-2.1-3.7-3.7c-0.9-1.5-1.3-3.2-1.3-5v-5h-3v-2h7.5v2h-2.5v5c0,1.4,0.4,2.8,1.1,4s1.7,2.2,2.9,2.9s2.6,1.1,4,1.1v-13
		h-2.5v-2h7v2h-2.5v13c1.4,0,2.8-0.4,4-1.1s2.2-1.7,2.9-2.9s1.1-2.6,1.1-4v-5h-2.5v-2h7.5V176z"/>
	<path d="M348.7,188.5c-0.7,1.4-1.7,2.6-2.9,3.5h4v2h-8v-2.1c1.1-0.3,2.2-0.8,3.1-1.6c0.9-0.8,1.6-1.7,2.1-2.8
		c0.5-1.1,0.8-2.3,0.8-3.5c0-1.5-0.4-2.8-1.1-4c-0.7-1.2-1.7-2.2-2.9-2.9c-1.2-0.7-2.6-1.1-4-1.1s-2.8,0.4-4,1.1
		c-1.2,0.7-2.2,1.7-2.9,2.9c-0.7,1.2-1.1,2.6-1.1,4c0,1.2,0.3,2.4,0.8,3.5c0.5,1.1,1.2,2,2.1,2.8c0.9,0.8,1.9,1.3,3.1,1.6v2.1h-8v-2
		h4c-1.2-0.9-2.2-2.1-2.9-3.5c-0.7-1.4-1.1-2.9-1.1-4.5c0-1.8,0.5-3.5,1.3-5c0.9-1.5,2.1-2.7,3.6-3.6c1.5-0.9,3.2-1.3,5-1.3
		s3.5,0.5,5,1.3c1.5,0.9,2.7,2.1,3.6,3.6c0.9,1.5,1.3,3.2,1.3,5C349.7,185.6,349.4,187.1,348.7,188.5z"/>
	<path d="M46.8,229v2h-1c-0.9,0-1.7-0.2-2.3-0.6c-0.7-0.4-1.1-1-1.4-1.8c-0.7,0.7-1.4,1.3-2.3,1.8c-0.9,0.4-1.9,0.6-2.9,0.6
		c-1.3,0-2.5-0.3-3.5-0.9c-1.1-0.6-1.9-1.5-2.5-2.5c-0.6-1.1-0.9-2.2-0.9-3.5s0.3-2.5,0.9-3.5c0.6-1.1,1.5-1.9,2.5-2.5
		c1.1-0.6,2.2-0.9,3.5-0.9c1,0,1.9,0.2,2.7,0.5c0.9,0.4,1.6,0.9,2.3,1.5V217h2v10c0,0.6,0.2,1.1,0.5,1.5c0.4,0.4,0.9,0.5,1.5,0.5
		H46.8z M39.3,228.3c0.8-0.4,1.4-1,1.8-1.8s0.7-1.6,0.7-2.5s-0.2-1.8-0.7-2.5c-0.4-0.8-1-1.4-1.8-1.8c-0.8-0.4-1.6-0.7-2.5-0.7
		s-1.8,0.2-2.5,0.7c-0.8,0.4-1.4,1-1.8,1.8c-0.4,0.8-0.7,1.6-0.7,2.5s0.2,1.8,0.7,2.5s1,1.4,1.8,1.8c0.8,0.4,1.6,0.7,2.5,0.7
		S38.5,228.8,39.3,228.3z"/>
	<path d="M61,222.6c0.5,0.9,0.8,1.8,0.8,2.8c0,1-0.2,2-0.7,2.8c-0.5,0.9-1.1,1.5-2,2s-1.7,0.8-2.7,0.8h-1.2c-0.6,0-1.2-0.1-1.8-0.3
		c-0.6-0.2-1.1-0.5-1.6-0.9v6.2h-2v-19.6c0-0.9,0.3-1.8,0.8-2.7c0.5-0.8,1.2-1.5,2-2c0.8-0.5,1.7-0.7,2.7-0.7s1.8,0.2,2.7,0.7
		s1.5,1.2,2,2c0.5,0.8,0.8,1.7,0.8,2.7c0,0.8-0.2,1.6-0.5,2.3c-0.3,0.7-0.8,1.4-1.4,1.9C59.7,221.1,60.4,221.8,61,222.6z
		 M58.1,228.5c0.5-0.3,0.9-0.8,1.2-1.3c0.3-0.5,0.5-1.2,0.5-1.8c0-0.6-0.2-1.2-0.5-1.7c-0.3-0.5-0.7-0.9-1.2-1.2
		c-0.5-0.3-1.1-0.5-1.7-0.5h-1.6v-2h0.6c0.6,0,1.1-0.2,1.7-0.5c0.5-0.3,0.9-0.8,1.3-1.3c0.3-0.6,0.5-1.2,0.5-1.8
		c0-0.6-0.2-1.1-0.5-1.7c-0.3-0.5-0.8-0.9-1.3-1.3c-0.5-0.3-1.1-0.5-1.7-0.5c-0.6,0-1.1,0.2-1.7,0.5c-0.5,0.3-1,0.7-1.3,1.3
		c-0.3,0.5-0.5,1.1-0.5,1.7v9c0,0.7,0.2,1.3,0.5,1.8c0.3,0.5,0.7,1,1.2,1.3c0.5,0.3,1.1,0.5,1.7,0.5h1.2
		C57,229,57.5,228.8,58.1,228.5z"/>
	<path d="M77.8,217c0,1.8-0.5,3.6-1.5,5.4l-4.9,8.6l-0.2,0.4v5.6h-2v-6l-3.8-14h2.1l3,11.3l4.1-7.1c0.8-1.2,1.2-2.6,1.2-4.2H77.8z"
		/>
	<path d="M92.3,217.9c1.1,0.6,1.9,1.5,2.5,2.5c0.6,1.1,0.9,2.2,0.9,3.5s-0.3,2.5-0.9,3.5c-0.6,1.1-1.5,1.9-2.5,2.5S90,231,88.8,231
		s-2.5-0.3-3.5-0.9c-1.1-0.6-1.9-1.5-2.5-2.5c-0.6-1.1-0.9-2.2-0.9-3.5c0-1.3,0.3-2.4,0.9-3.5c0.6-1.1,1.4-1.9,2.4-2.5
		c-0.4-0.4-0.8-0.8-1-1.3c-0.2-0.5-0.4-1.1-0.4-1.7c0-0.7,0.2-1.4,0.5-2s0.8-1.1,1.5-1.5s1.3-0.5,2-0.5h6v2h-6c-0.5,0-1,0.2-1.4,0.6
		c-0.4,0.4-0.6,0.9-0.6,1.4s0.2,1,0.6,1.4s0.9,0.6,1.4,0.6h1C90,217,91.2,217.3,92.3,217.9z M91.3,228.3c0.8-0.4,1.4-1,1.8-1.8
		s0.7-1.6,0.7-2.5s-0.2-1.8-0.7-2.5c-0.4-0.8-1-1.4-1.8-1.8c-0.8-0.4-1.6-0.7-2.5-0.7s-1.8,0.2-2.5,0.7c-0.8,0.4-1.4,1-1.8,1.8
		c-0.4,0.8-0.7,1.6-0.7,2.5s0.2,1.8,0.7,2.5s1,1.4,1.8,1.8c0.8,0.4,1.6,0.7,2.5,0.7S90.5,228.8,91.3,228.3z"/>
	<path d="M104.7,217.5c-0.6,0.5-1.2,1.3-1.9,2.3c-0.4,0.7-0.6,1.4-0.8,2c-0.2,0.6-0.3,1.4-0.3,2.2c0,1,0.3,1.9,0.8,2.7
		s1.2,1.4,2,1.8l5,1.9c0.7,0.3,1.2,0.8,1.6,1.4c0.4,0.6,0.6,1.4,0.6,2.2v2h-2v-2c0-0.9-0.4-1.5-1.1-1.8l-5-1.9
		c-1.2-0.5-2.1-1.3-2.8-2.5c-0.7-1.2-1.1-2.4-1.1-3.8c0.1-1.2,0.2-2.1,0.5-2.9c0.2-0.8,0.5-1.5,0.8-2.1c0.7-1.1,1.5-2.1,2.2-2.8
		s1.5-1.3,2.5-1.9l2.1-1.3h-6.1v-2h10v2c-1.9,1-3.5,1.9-4.7,2.7C106.1,216.4,105.3,216.9,104.7,217.5z"/>
	<path d="M124.7,217.8c0.9,0.5,1.7,1.3,2.2,2.2s0.8,1.9,0.8,3v12h-2v-12c0-0.7-0.2-1.4-0.5-2s-0.8-1.1-1.5-1.5s-1.3-0.5-2-0.5
		s-1.4,0.2-2,0.5s-1.1,0.8-1.5,1.5s-0.5,1.3-0.5,2v8h-2v-10c0-0.5-0.2-1-0.6-1.4c-0.4-0.4-0.9-0.6-1.4-0.6v-2h0.1
		c0.7,0,1.4,0.2,2,0.6s1.1,0.9,1.4,1.5c0.6-0.6,1.2-1.1,2-1.5c0.8-0.4,1.6-0.5,2.5-0.5C122.8,217,123.8,217.3,124.7,217.8z"/>
	<path d="M143.3,211.9c1.1,0.6,1.9,1.5,2.5,2.5s0.9,2.2,0.9,3.5v6c0,1.3-0.3,2.5-0.9,3.5s-1.5,1.9-2.5,2.5s-2.2,0.9-3.5,0.9
		s-2.5-0.3-3.5-0.9s-1.9-1.5-2.5-2.5s-0.9-2.2-0.9-3.5v-6c0-1.3,0.3-2.5,0.9-3.5s1.5-1.9,2.5-2.5s2.2-0.9,3.5-0.9
		S142.2,211.3,143.3,211.9z M142.3,228.3c0.8-0.4,1.4-1,1.8-1.8c0.4-0.8,0.7-1.6,0.7-2.5v-6c0-0.9-0.2-1.8-0.7-2.5
		c-0.4-0.8-1-1.4-1.8-1.8c-0.8-0.4-1.6-0.7-2.5-0.7s-1.8,0.2-2.5,0.7c-0.8,0.4-1.4,1-1.8,1.8c-0.4,0.8-0.7,1.6-0.7,2.5v6
		c0,0.9,0.2,1.8,0.7,2.5c0.4,0.8,1,1.4,1.8,1.8c0.8,0.4,1.6,0.7,2.5,0.7S141.5,228.8,142.3,228.3z M136.7,220h6v2h-6V220z"/>
	<path d="M166.7,229v2h-1c-1.1,0-2.2-0.3-3.1-0.8c-0.9-0.5-1.6-1.2-1.9-1.9l-2-4.7l-3.1,7.4h-2.2l4.2-10l-2.6-6.2
		c-0.2-0.5-0.6-1-1.3-1.3s-1.3-0.5-2-0.5h-1v-2h1c1.1,0,2.2,0.2,3.1,0.7c0.9,0.5,1.6,1.1,1.9,1.9l5.7,13.6c0.2,0.5,0.6,1,1.2,1.3
		s1.3,0.5,2,0.5H166.7z"/>
	<path d="M182.3,228.5c0.4,0.4,0.9,0.5,1.5,0.5v2c-0.8,0-1.5-0.2-2.1-0.5c-0.6-0.3-1.1-0.8-1.4-1.5c-0.6,0.6-1.2,1.1-2,1.5
		c-0.8,0.4-1.6,0.5-2.5,0.5c-0.8,0-1.5-0.1-2.2-0.4c-0.7-0.3-1.3-0.6-1.8-1.1v7.5h-2v-20h2v8c0,0.7,0.2,1.4,0.5,2s0.8,1.1,1.5,1.5
		s1.3,0.5,2,0.5s1.4-0.2,2-0.5s1.1-0.8,1.5-1.5s0.5-1.3,0.5-2v-8h2v10C181.7,227.6,181.9,228.1,182.3,228.5z"/>
	<path d="M198.7,217c0,1.8-0.5,3.6-1.5,5.4l-4.9,8.6h-2.2l-3.8-14h2.1l3,11.3l4.1-7.1c0.8-1.2,1.2-2.6,1.2-4.2H198.7z"/>
	<path d="M214.2,231.8c0.4,0.6,0.6,1.4,0.6,2.2v2h-2v-2c0-0.9-0.4-1.5-1.1-1.8l-5-1.9c-1.2-0.5-2.1-1.3-2.8-2.5
		c-0.7-1.2-1.1-2.4-1.1-3.8c0-0.9,0.2-1.8,0.7-2.6s1.1-1.4,1.8-1.8c-0.5-0.5-0.9-1-1.1-1.6c-0.3-0.6-0.4-1.3-0.4-2
		c0-1.3,0.5-2.3,1.4-3h-2.4v-2h10v2h-4c-0.6,0-1.1,0.1-1.5,0.4c-0.5,0.3-0.8,0.6-1.1,1.1c-0.3,0.5-0.4,1-0.4,1.5s0.1,1.1,0.4,1.5
		c0.3,0.5,0.6,0.8,1.1,1.1c0.5,0.3,1,0.4,1.5,0.4h3v2h-4c-0.6,0-1.1,0.1-1.5,0.4c-0.5,0.3-0.8,0.6-1.1,1.1c-0.3,0.5-0.4,1-0.4,1.5
		c0,1,0.3,1.9,0.8,2.7s1.2,1.4,2,1.8l5,1.9C213.3,230.7,213.8,231.2,214.2,231.8z"/>
	<path d="M232.3,227c0.4,0.6,0.8,1.1,1.5,1.5s1.3,0.5,2,0.5v2c-1.1,0-2.1-0.3-3-0.8s-1.7-1.3-2.2-2.2s-0.8-1.9-0.8-3v-6h-6v12h-2
		v-12h-3v-2h16v2h-3v6C231.7,225.7,231.9,226.4,232.3,227z"/>
	<path d="M250.3,217.9c1.1,0.6,1.9,1.5,2.5,2.5s0.9,2.2,0.9,3.5s-0.3,2.5-0.9,3.5s-1.5,1.9-2.5,2.5s-2.2,0.9-3.5,0.9
		c-1,0-1.9-0.2-2.7-0.5c-0.9-0.4-1.6-0.9-2.3-1.5v5.1h-2v-10c0-1.3,0.3-2.5,0.9-3.5s1.5-1.9,2.5-2.5s2.2-0.9,3.5-0.9
		S249.2,217.3,250.3,217.9z M249.3,228.3c0.8-0.4,1.4-1,1.8-1.8c0.4-0.8,0.7-1.6,0.7-2.5s-0.2-1.8-0.7-2.5c-0.4-0.8-1-1.4-1.8-1.8
		c-0.8-0.4-1.6-0.7-2.5-0.7s-1.8,0.2-2.5,0.7c-0.8,0.4-1.4,1-1.8,1.8c-0.4,0.8-0.7,1.6-0.7,2.5s0.2,1.8,0.7,2.5
		c0.4,0.8,1,1.4,1.8,1.8c0.8,0.4,1.6,0.7,2.5,0.7S248.5,228.8,249.3,228.3z"/>
	<path d="M273.7,219h-4.1c0.7,0.6,1.2,1.4,1.5,2.3c0.4,0.9,0.5,1.8,0.5,2.7c0,1.3-0.3,2.5-0.9,3.5s-1.5,1.9-2.5,2.5
		s-2.2,0.9-3.5,0.9s-2.5-0.3-3.5-0.9s-1.9-1.5-2.5-2.5s-0.9-2.2-0.9-3.5s0.3-2.5,0.9-3.5s1.5-1.9,2.5-2.5s2.2-0.9,3.5-0.9h9V219z
		 M269.1,221.5c-0.4-0.8-1-1.4-1.8-1.8c-0.8-0.4-1.6-0.7-2.5-0.7s-1.8,0.2-2.5,0.7c-0.8,0.4-1.4,1-1.8,1.8c-0.4,0.8-0.7,1.6-0.7,2.5
		s0.2,1.8,0.7,2.5c0.4,0.8,1,1.4,1.8,1.8c0.8,0.4,1.6,0.7,2.5,0.7s1.8-0.2,2.5-0.7c0.8-0.4,1.4-1,1.8-1.8c0.4-0.8,0.7-1.6,0.7-2.5
		S269.5,222.2,269.1,221.5z"/>
	<path d="M280.2,219.7c-0.8,0.4-1.4,1-1.8,1.8c-0.4,0.8-0.7,1.6-0.7,2.5c0,1,0.3,1.9,0.8,2.7s1.2,1.4,2,1.8l5,1.9
		c0.7,0.3,1.2,0.8,1.6,1.4s0.6,1.4,0.6,2.2v2h-2v-2c0-0.9-0.4-1.5-1.1-1.8l-5-1.9c-1.2-0.5-2.1-1.3-2.8-2.5
		c-0.7-1.2-1.1-2.4-1.1-3.8c0-1.3,0.3-2.5,0.9-3.5s1.5-1.9,2.5-2.5s2.2-0.9,3.5-0.9s2.5,0.3,3.5,0.9s1.9,1.5,2.5,2.5
		s0.9,2.2,0.9,3.5h-2c0-0.9-0.2-1.8-0.7-2.5c-0.4-0.8-1-1.4-1.8-1.8c-0.8-0.4-1.6-0.7-2.5-0.7S281,219.2,280.2,219.7z"/>
	<path d="M306.3,217.9c1.1,0.6,1.9,1.5,2.5,2.5s0.9,2.2,0.9,3.5s-0.3,2.5-0.9,3.5s-1.5,1.9-2.5,2.5s-2.2,0.9-3.5,0.9v3h-2v-3
		c-1.3,0-2.5-0.3-3.5-0.9s-1.9-1.5-2.5-2.5s-0.9-2.2-0.9-3.5s0.3-2.5,0.9-3.5s1.5-1.9,2.5-2.5s2.2-0.9,3.5-0.9v-3h2v3
		C304,217,305.2,217.3,306.3,217.9z M296.4,226.5c0.4,0.8,1,1.4,1.8,1.8c0.8,0.4,1.6,0.7,2.5,0.7v-10c-0.9,0-1.8,0.2-2.5,0.7
		c-0.8,0.4-1.4,1-1.8,1.8c-0.4,0.8-0.7,1.6-0.7,2.5S296,225.8,296.4,226.5z M305.3,228.3c0.8-0.4,1.4-1,1.8-1.8
		c0.4-0.8,0.7-1.6,0.7-2.5s-0.2-1.8-0.7-2.5c-0.4-0.8-1-1.4-1.8-1.8c-0.8-0.4-1.6-0.7-2.5-0.7v10C303.7,229,304.5,228.8,305.3,228.3
		z"/>
	<path d="M331.8,232v2h-1.2c-1,0-1.9-0.2-2.8-0.7s-1.6-1.1-2.2-1.9l-3.8-5.6l-5.6,8.2h-2.4l6.8-10l-4.3-6.3
		c-0.4-0.5-0.8-0.9-1.4-1.2s-1.2-0.5-1.9-0.5h-1.2v-2h1.2c1,0,1.9,0.2,2.8,0.7s1.6,1.1,2.2,1.9l3.8,5.6l5.6-8.2h2.4l-6.8,10l4.3,6.3
		c0.4,0.5,0.8,0.9,1.4,1.2s1.2,0.5,1.9,0.5H331.8z"/>
	<path d="M347.8,217v8c0,1.1-0.3,2.1-0.8,3s-1.3,1.7-2.2,2.2s-1.9,0.8-3,0.8v3h-2v-3c-1.1,0-2.1-0.3-3-0.8s-1.7-1.3-2.2-2.2
		s-0.8-1.9-0.8-3v-8h2v8c0,0.7,0.2,1.4,0.5,2s0.8,1.1,1.5,1.5s1.3,0.5,2,0.5v-15h2v15c0.7,0,1.4-0.2,2-0.5s1.1-0.8,1.5-1.5
		s0.5-1.3,0.5-2v-8H347.8z"/>
	<path d="M368.3,220.4c0.3,1.4,0.5,2.6,0.5,3.6v2.5c0,0.8-0.2,1.6-0.6,2.2c-0.4,0.7-1,1.2-1.6,1.6c-0.7,0.4-1.4,0.6-2.2,0.6
		c-0.7,0-1.3-0.2-2-0.5s-1.1-0.7-1.5-1.2c-0.4,0.5-0.9,0.9-1.5,1.2s-1.3,0.5-2,0.5c-0.8,0-1.6-0.2-2.2-0.6c-0.7-0.4-1.2-1-1.6-1.6
		c-0.4-0.7-0.6-1.4-0.6-2.2V224c0-1.1,0.2-2.3,0.5-3.6c0.3-1.4,0.7-2.5,1.2-3.4h2.3c-0.6,0.9-1,2-1.4,3.4s-0.6,2.6-0.6,3.6v2.5
		c0,0.7,0.2,1.3,0.7,1.8c0.5,0.5,1.1,0.7,1.8,0.7s1.3-0.2,1.8-0.7c0.5-0.5,0.7-1.1,0.7-1.8V224h2v2.5c0,0.7,0.2,1.3,0.7,1.8
		c0.5,0.5,1.1,0.7,1.8,0.7s1.3-0.2,1.8-0.7c0.5-0.5,0.7-1.1,0.7-1.8V224c0-1.1-0.2-2.3-0.6-3.6s-0.9-2.5-1.4-3.4h2.3
		C367.5,217.9,367.9,219,368.3,220.4z"/>
	<path d="M53.8,257.5c0.6,0.4,1.1,0.8,1.5,1.5s0.5,1.3,0.5,2h-2c0-0.5-0.2-1-0.6-1.4c-0.4-0.4-0.9-0.6-1.4-0.6
		c-0.7,0-1.3,0.2-1.8,0.5c-0.5,0.3-0.9,0.8-1.3,1.4l-1.8,3.1c0.3,0.5,0.8,1.3,1.5,2.3c0.8,1.1,1.4,2,1.8,2.7c0.4,0.7,0.6,1.4,0.6,2
		c0,0.9-0.2,1.8-0.7,2.5c-0.4,0.8-1,1.4-1.8,1.8c-0.8,0.4-1.6,0.7-2.5,0.7s-1.8-0.2-2.5-0.7c-0.8-0.4-1.4-1-1.8-1.8
		c-0.4-0.8-0.7-1.6-0.7-2.5c0-0.6,0.2-1.3,0.6-2c0.4-0.7,1-1.6,1.8-2.7c0.7-1.1,1.3-1.8,1.5-2.3l-1.8-3.1c-0.6-1.3-1.7-1.9-3.1-1.9
		c-0.5,0-1,0.2-1.4,0.6c-0.4,0.4-0.6,0.9-0.6,1.4h-2c0-0.7,0.2-1.4,0.5-2s0.8-1.1,1.5-1.5s1.3-0.5,2-0.5c1.9,0,3.5,0.9,4.7,2.8
		l1.3,2.3l1.3-2.3c1.2-1.9,2.8-2.8,4.7-2.8C52.5,257,53.1,257.2,53.8,257.5z M48.2,269.5c-0.4-0.6-0.9-1.5-1.6-2.5
		c-0.5-0.8-0.8-1.2-0.8-1.2c0,0.1-0.3,0.5-0.8,1.2c-0.7,1-1.2,1.9-1.6,2.5c-0.4,0.6-0.6,1.1-0.6,1.5c0,0.6,0.1,1.1,0.4,1.5
		c0.3,0.5,0.6,0.8,1.1,1.1c0.5,0.3,1,0.4,1.5,0.4s1.1-0.1,1.5-0.4c0.5-0.3,0.8-0.6,1.1-1.1c0.3-0.5,0.4-1,0.4-1.5
		C48.8,270.7,48.6,270.2,48.2,269.5z"/>
	<path d="M90.7,263.5c0.6,0.4,1.1,0.8,1.5,1.5s0.5,1.3,0.5,2s-0.2,1.4-0.5,2s-0.8,1.1-1.5,1.5s-1.3,0.5-2,0.5h-2v4h-2v-4h-8l6.6-12
		h-9.6v12h-2v-2.1c-0.6,0.7-1.4,1.2-2.3,1.5c-0.9,0.4-1.8,0.5-2.7,0.5c-1.3,0-2.5-0.3-3.5-0.9c-1.1-0.6-1.9-1.5-2.5-2.5
		c-0.6-1.1-0.9-2.2-0.9-3.5s0.3-2.5,0.9-3.5c0.6-1.1,1.5-1.9,2.5-2.5c1.1-0.6,2.2-0.9,3.5-0.9c1,0,1.9,0.2,2.7,0.5
		c0.9,0.4,1.6,0.9,2.3,1.5V251h2v6h13L80,269h4.7v-2c0-0.7,0.2-1.4,0.5-2s0.8-1.1,1.5-1.5s1.3-0.5,2-0.5S90.1,263.2,90.7,263.5z
		 M69.3,268.3c0.8-0.4,1.4-1,1.8-1.8s0.7-1.6,0.7-2.5s-0.2-1.8-0.7-2.5c-0.4-0.8-1-1.4-1.8-1.8c-0.8-0.4-1.6-0.7-2.5-0.7
		s-1.8,0.2-2.5,0.7c-0.8,0.4-1.4,1-1.8,1.8c-0.4,0.8-0.7,1.6-0.7,2.5s0.2,1.8,0.7,2.5s1,1.4,1.8,1.8c0.8,0.4,1.6,0.7,2.5,0.7
		S68.5,268.8,69.3,268.3z M90.2,268.4c0.4-0.4,0.6-0.9,0.6-1.4s-0.2-1-0.6-1.4c-0.4-0.4-0.9-0.6-1.4-0.6c-0.5,0-1,0.2-1.4,0.6
		c-0.4,0.4-0.6,0.9-0.6,1.4v2h2C89.3,269,89.8,268.8,90.2,268.4z"/>
	<path d="M110.3,254.7c0.8,0.4,1.4,1.1,1.8,1.8c0.4,0.8,0.7,1.6,0.7,2.5v7c0,1.5-0.4,2.8-1.1,4c-0.7,1.2-1.7,2.2-2.9,2.9
		c-1.2,0.7-2.6,1.1-4,1.1c-1.5,0-2.8-0.4-4-1.1c-1.2-0.7-2.2-1.7-2.9-2.9c-0.7-1.2-1.1-2.6-1.1-4v-12h2v12c0,1.1,0.3,2.1,0.8,3
		c0.5,0.9,1.3,1.6,2.2,2.2c0.9,0.5,1.9,0.8,3,0.8s2.1-0.3,3-0.8c0.9-0.5,1.6-1.3,2.2-2.2c0.5-0.9,0.8-1.9,0.8-3v-7
		c0-0.5-0.1-1-0.4-1.5c-0.3-0.5-0.6-0.8-1.1-1.1c-0.5-0.3-1-0.4-1.5-0.4c-0.5,0-1,0.1-1.5,0.4c-0.5,0.3-0.8,0.6-1.1,1.1
		s-0.4,1-0.4,1.5h-2c0-0.9,0.2-1.7,0.7-2.5s1.1-1.4,1.8-1.8c0.8-0.4,1.6-0.7,2.5-0.7S109.5,254.2,110.3,254.7z"/>
	<path d="M128.7,259l-4.5,5.2c0.9,0.2,1.6,0.6,2.3,1.2s1.2,1.3,1.6,2.1c0.4,0.8,0.6,1.7,0.6,2.6c0,1.1-0.3,2.1-0.8,3
		s-1.3,1.7-2.2,2.2s-1.9,0.8-3,0.8s-2.1-0.3-3-0.8s-1.7-1.3-2.2-2.2s-0.8-1.9-0.8-3h2c0,0.7,0.2,1.4,0.5,2s0.8,1.1,1.5,1.5
		s1.3,0.5,2,0.5s1.4-0.2,2-0.5s1.1-0.8,1.5-1.5s0.5-1.3,0.5-2s-0.2-1.4-0.5-2s-0.8-1.1-1.5-1.5s-1.3-0.5-2-0.5h-1v-2l4.3-5h-9.3v-2
		h12V259z M127.9,248l-4,6h-2.4l-4-6h2.4l2.8,4.2l2.8-4.2H127.9z"/>
	<path d="M155.3,257.9c1.1,0.6,1.9,1.5,2.5,2.5s0.9,2.2,0.9,3.5s-0.3,2.5-0.9,3.5s-1.5,1.9-2.5,2.5s-2.2,0.9-3.5,0.9
		c-1,0-1.9-0.2-2.7-0.5c-0.9-0.4-1.6-0.9-2.3-1.5v2.1h-2v-2.1c-0.6,0.7-1.4,1.2-2.3,1.5c-0.9,0.4-1.8,0.5-2.7,0.5
		c-1.3,0-2.5-0.3-3.5-0.9s-1.9-1.5-2.5-2.5s-0.9-2.2-0.9-3.5s0.3-2.5,0.9-3.5s1.5-1.9,2.5-2.5s2.2-0.9,3.5-0.9c1,0,1.9,0.2,2.7,0.5
		c0.9,0.4,1.6,0.9,2.3,1.5V251h2v8.1c0.6-0.7,1.4-1.2,2.3-1.5c0.9-0.4,1.8-0.5,2.7-0.5C153,257,154.2,257.3,155.3,257.9z
		 M142.3,268.3c0.8-0.4,1.4-1,1.8-1.8c0.4-0.8,0.7-1.6,0.7-2.5s-0.2-1.8-0.7-2.5c-0.4-0.8-1-1.4-1.8-1.8c-0.8-0.4-1.6-0.7-2.5-0.7
		s-1.8,0.2-2.5,0.7c-0.8,0.4-1.4,1-1.8,1.8c-0.4,0.8-0.7,1.6-0.7,2.5s0.2,1.8,0.7,2.5c0.4,0.8,1,1.4,1.8,1.8
		c0.8,0.4,1.6,0.7,2.5,0.7S141.5,268.8,142.3,268.3z M154.3,268.3c0.8-0.4,1.4-1,1.8-1.8c0.4-0.8,0.7-1.6,0.7-2.5s-0.2-1.8-0.7-2.5
		c-0.4-0.8-1-1.4-1.8-1.8c-0.8-0.4-1.6-0.7-2.5-0.7s-1.8,0.2-2.5,0.7c-0.8,0.4-1.4,1-1.8,1.8c-0.4,0.8-0.7,1.6-0.7,2.5
		s0.2,1.8,0.7,2.5c0.4,0.8,1,1.4,1.8,1.8c0.8,0.4,1.6,0.7,2.5,0.7S153.5,268.8,154.3,268.3z"/>
	<path d="M163.3,257c0.4-0.6,0.8-1.1,1.5-1.5s1.3-0.5,2-0.5s1.4,0.2,2,0.5s1.1,0.8,1.5,1.5s0.5,1.3,0.5,2s-0.2,1.4-0.5,2
		s-0.8,1.1-1.5,1.5s-1.3,0.5-2,0.5s-1.4-0.2-2-0.5s-1.1-0.8-1.5-1.5s-0.5-1.3-0.5-2S162.9,257.6,163.3,257z M165.3,260.4
		c0.4,0.4,0.9,0.6,1.4,0.6s1-0.2,1.4-0.6c0.4-0.4,0.6-0.9,0.6-1.4s-0.2-1-0.6-1.4c-0.4-0.4-0.9-0.6-1.4-0.6s-1,0.2-1.4,0.6
		c-0.4,0.4-0.6,0.9-0.6,1.4S164.9,260,165.3,260.4z M175.7,255h2.4l-10.4,18h-2.4L175.7,255z M173.3,267c0.4-0.6,0.8-1.1,1.5-1.5
		s1.3-0.5,2-0.5s1.4,0.2,2,0.5s1.1,0.8,1.5,1.5s0.5,1.3,0.5,2s-0.2,1.4-0.5,2s-0.8,1.1-1.5,1.5s-1.3,0.5-2,0.5s-1.4-0.2-2-0.5
		s-1.1-0.8-1.5-1.5s-0.5-1.3-0.5-2S172.9,267.6,173.3,267z M175.3,270.4c0.4,0.4,0.9,0.6,1.4,0.6s1-0.2,1.4-0.6
		c0.4-0.4,0.6-0.9,0.6-1.4s-0.2-1-0.6-1.4c-0.4-0.4-0.9-0.6-1.4-0.6s-1,0.2-1.4,0.6c-0.4,0.4-0.6,0.9-0.6,1.4S174.9,270,175.3,270.4
		z M183.3,267c0.4-0.6,0.8-1.1,1.5-1.5s1.3-0.5,2-0.5s1.4,0.2,2,0.5s1.1,0.8,1.5,1.5s0.5,1.3,0.5,2s-0.2,1.4-0.5,2s-0.8,1.1-1.5,1.5
		s-1.3,0.5-2,0.5s-1.4-0.2-2-0.5s-1.1-0.8-1.5-1.5s-0.5-1.3-0.5-2S182.9,267.6,183.3,267z M185.3,270.4c0.4,0.4,0.9,0.6,1.4,0.6
		s1-0.2,1.4-0.6c0.4-0.4,0.6-0.9,0.6-1.4s-0.2-1-0.6-1.4c-0.4-0.4-0.9-0.6-1.4-0.6s-1,0.2-1.4,0.6c-0.4,0.4-0.6,0.9-0.6,1.4
		S184.9,270,185.3,270.4z M193.3,267c0.4-0.6,0.8-1.1,1.5-1.5s1.3-0.5,2-0.5s1.4,0.2,2,0.5s1.1,0.8,1.5,1.5s0.5,1.3,0.5,2
		s-0.2,1.4-0.5,2s-0.8,1.1-1.5,1.5s-1.3,0.5-2,0.5s-1.4-0.2-2-0.5s-1.1-0.8-1.5-1.5s-0.5-1.3-0.5-2S192.9,267.6,193.3,267z
		 M195.3,270.4c0.4,0.4,0.9,0.6,1.4,0.6s1-0.2,1.4-0.6c0.4-0.4,0.6-0.9,0.6-1.4s-0.2-1-0.6-1.4c-0.4-0.4-0.9-0.6-1.4-0.6
		s-1,0.2-1.4,0.6c-0.4,0.4-0.6,0.9-0.6,1.4S194.9,270,195.3,270.4z"/>
	<path d="M223.8,249.8c0.9,0.5,1.6,1.3,2.2,2.2s0.8,1.9,0.8,3c0,1-0.2,1.9-0.7,2.7c-0.4,0.8-1,1.5-1.8,2.1c-0.8,0.6-1.6,0.9-2.5,1.1
		v3.1h-2v-5h1c0.7,0,1.4-0.2,2-0.5s1.1-0.8,1.5-1.5c0.4-0.6,0.5-1.3,0.5-2s-0.2-1.4-0.5-2s-0.8-1.1-1.5-1.5s-1.3-0.5-2-0.5
		c-0.7,0-1.4,0.2-2,0.5s-1.1,0.8-1.5,1.5s-0.5,1.3-0.5,2c0,1-0.2,1.9-0.7,2.7c-0.4,0.8-1,1.5-1.8,2.1c-0.8,0.6-1.6,0.9-2.5,1.1v3.1
		h-2v-5h1c0.7,0,1.4-0.2,2-0.5s1.1-0.8,1.5-1.5c0.4-0.6,0.5-1.3,0.5-2s-0.2-1.4-0.5-2s-0.8-1.1-1.5-1.5s-1.3-0.5-2-0.5
		c-0.7,0-1.4,0.2-2,0.5s-1.1,0.8-1.5,1.5s-0.5,1.3-0.5,2h-2c0-1.1,0.3-2.1,0.8-3s1.3-1.6,2.2-2.2c0.9-0.5,1.9-0.8,3-0.8
		c1,0,2,0.2,2.9,0.7c0.9,0.5,1.6,1.1,2.1,2c0.5-0.8,1.3-1.5,2.1-2c0.9-0.5,1.8-0.7,2.9-0.7C221.8,249,222.8,249.3,223.8,249.8z
		 M212.2,267.6c0.4,0.4,0.6,0.9,0.6,1.4s-0.2,1-0.6,1.4c-0.4,0.4-0.9,0.6-1.4,0.6s-1-0.2-1.4-0.6s-0.6-0.9-0.6-1.4s0.2-1,0.6-1.4
		c0.4-0.4,0.9-0.6,1.4-0.6S211.8,267.2,212.2,267.6z M222.2,267.6c0.4,0.4,0.6,0.9,0.6,1.4s-0.2,1-0.6,1.4c-0.4,0.4-0.9,0.6-1.4,0.6
		s-1-0.2-1.4-0.6s-0.6-0.9-0.6-1.4s0.2-1,0.6-1.4c0.4-0.4,0.9-0.6,1.4-0.6S221.8,267.2,222.2,267.6z"/>
	<path d="M231.3,267.6l3.6,1.7l-0.3,1l-4-0.8L231.3,267.6z M232,273.5l2.8-2.9l0.8,0.6l-1.9,3.5L232,273.5z M236.7,265l-0.5,4h-1
		l-0.5-4H236.7z M237.9,274.6l-2-3.5l0.8-0.6l2.8,2.9L237.9,274.6z M240.8,269.4l-4,0.8l-0.3-0.9l3.7-1.7L240.8,269.4z M237.3,255.6
		l3.6,1.7l-0.3,1l-4-0.8L237.3,255.6z M238,261.5l2.8-2.9l0.8,0.6l-1.9,3.5L238,261.5z M242.7,253l-0.5,4h-1l-0.5-4H242.7z
		 M243.9,262.6l-2-3.5l0.8-0.6l2.8,2.9L243.9,262.6z M246.8,257.4l-4,0.8l-0.3-0.9l3.7-1.7L246.8,257.4z M243.3,267.6l3.6,1.7
		l-0.3,1l-4-0.8L243.3,267.6z M244,273.5l2.8-2.9l0.8,0.6l-1.9,3.5L244,273.5z M248.7,265l-0.5,4h-1l-0.5-4H248.7z M249.9,274.6
		l-2-3.5l0.8-0.6l2.8,2.9L249.9,274.6z M252.8,269.4l-4,0.8l-0.3-0.9l3.7-1.7L252.8,269.4z"/>
	<path d="M258.7,256v18h-2v-20h8c1.1,0,2.1,0.3,3,0.8s1.7,1.3,2.2,2.2s0.8,1.9,0.8,3v8h-2v-8c0-0.7-0.2-1.4-0.5-2s-0.8-1.1-1.5-1.5
		s-1.3-0.5-2-0.5H258.7z M276.7,254v14c0,1.1-0.3,2.1-0.8,3s-1.3,1.7-2.2,2.2s-1.9,0.8-3,0.8h-8v-14h2v12h6c0.7,0,1.4-0.2,2-0.5
		s1.1-0.8,1.5-1.5s0.5-1.3,0.5-2v-14H276.7z"/>
	<path d="M297,265.6c0.5,0.9,0.8,1.8,0.8,2.8c0,1-0.2,2-0.7,2.8c-0.5,0.9-1.1,1.5-2,2s-1.7,0.8-2.7,0.8h-1.6v3h-2v-3h-3v3h-2v-3h-3
		v-2h3v-16h-3v-2h3v-3h2v3h3v-3h2v3h0.6c1,0,1.9,0.2,2.7,0.7c0.8,0.5,1.5,1.2,2,2c0.5,0.8,0.7,1.7,0.7,2.7c0,0.8-0.2,1.6-0.5,2.4
		c-0.3,0.7-0.8,1.4-1.4,1.9C295.7,264.1,296.4,264.8,297,265.6z M285.7,263h5.6c0.6,0,1.2-0.2,1.7-0.5c0.5-0.3,0.9-0.8,1.2-1.3
		c0.3-0.5,0.5-1.2,0.5-1.8c0-0.6-0.2-1.2-0.5-1.7c-0.3-0.5-0.7-0.9-1.2-1.2c-0.5-0.3-1.1-0.5-1.7-0.5h-5.6V263z M294,271.5
		c0.5-0.3,0.9-0.8,1.2-1.3c0.3-0.5,0.5-1.2,0.5-1.8c0-0.6-0.2-1.2-0.5-1.7c-0.3-0.5-0.7-0.9-1.2-1.2c-0.5-0.3-1.1-0.5-1.7-0.5h-6.6
		v7h6.6C293,272,293.5,271.8,294,271.5z"/>
	<path d="M303.7,265h-2v-12h2V265z M322.7,262l7,7l-7,7l-1.4-1.4l4.6-4.6h-24.2v-2h24.2l-4.6-4.6L322.7,262z M333.7,260h-24.2
		l4.6,4.6l-1.4,1.4l-7-7l7-7l1.4,1.4l-4.6,4.6h24.2V260z M331.7,263h2v12h-2V263z"/>
	<path d="M360.3,255.7c0.8,0.4,1.4,1.1,1.8,1.8c0.4,0.8,0.7,1.6,0.7,2.5c0,0.9-0.2,1.7-0.7,2.5c-0.4,0.8-1.1,1.4-1.8,1.8
		c-0.8,0.4-1.6,0.7-2.5,0.7h-3v8h-2v-8h-11.2l4.6,4.6l-1.4,1.4l-7-7l7-7l1.4,1.4l-4.6,4.6h11.2v-3c0-1,0.2-1.8,0.6-2.6
		s1-1.4,1.8-1.8c0.8-0.4,1.6-0.6,2.6-0.6C358.7,255,359.5,255.2,360.3,255.7z M359.3,262.6c0.5-0.3,0.8-0.6,1.1-1.1s0.4-1,0.4-1.5
		s-0.1-1-0.4-1.5s-0.6-0.8-1.1-1.1s-1-0.4-1.5-0.4c-0.9,0-1.6,0.3-2.2,0.8c-0.6,0.6-0.8,1.3-0.8,2.2v3h3
		C358.3,263,358.8,262.9,359.3,262.6z"/>
	<path d="M28.5,299.5c-0.7,0.3-1.3,0.8-1.7,1.4c-0.5,0.6-0.8,1.3-0.9,2h11.9v2H25.8c0.1,0.8,0.5,1.4,0.9,2c0.5,0.6,1,1.1,1.7,1.4
		s1.4,0.5,2.2,0.5h7v2h-7c-1.3,0-2.5-0.3-3.5-0.9c-1.1-0.6-1.9-1.5-2.5-2.5c-0.6-1.1-0.9-2.2-0.9-3.5s0.3-2.5,0.9-3.5
		c0.6-1.1,1.5-1.9,2.5-2.5c1.1-0.6,2.2-0.9,3.5-0.9h7v2h-7C29.9,299,29.2,299.2,28.5,299.5z"/>
	<path d="M59.7,298.8c0.9,0.5,1.6,1.3,2.2,2.2s0.8,1.9,0.8,3s-0.3,2.1-0.8,3s-1.3,1.7-2.2,2.2s-1.9,0.8-3,0.8v4c0,1.1-0.3,2.1-0.8,3
		s-1.3,1.7-2.2,2.2s-1.9,0.8-3,0.8h-1v-2h1c0.7,0,1.4-0.2,2-0.5s1.1-0.8,1.5-1.5s0.5-1.3,0.5-2v-4h-5v2c0,1.1-0.3,2.1-0.8,3
		s-1.3,1.7-2.2,2.2s-1.9,0.8-3,0.8h-1v-2h1c0.7,0,1.4-0.2,2-0.5s1.1-0.8,1.5-1.5s0.5-1.3,0.5-2v-2c-1.1,0-2.1-0.3-3-0.8
		s-1.6-1.3-2.2-2.2s-0.8-1.9-0.8-3s0.3-2.1,0.8-3s1.3-1.7,2.2-2.2s1.9-0.8,3-0.8v-4c0-1.1,0.3-2.1,0.8-3s1.3-1.7,2.2-2.2
		s1.9-0.8,3-0.8h1v2h-1c-0.7,0-1.4,0.2-2,0.5s-1.1,0.8-1.5,1.5s-0.5,1.3-0.5,2v4h5v-2c0-1.1,0.3-2.1,0.8-3s1.3-1.7,2.2-2.2
		s1.9-0.8,3-0.8h1v2h-1c-0.7,0-1.4,0.2-2,0.5s-1.1,0.8-1.5,1.5s-0.5,1.3-0.5,2v2C57.8,298,58.8,298.3,59.7,298.8z M44.3,306
		c0.4,0.6,0.8,1.1,1.5,1.5s1.3,0.5,2,0.5v-8c-0.7,0-1.4,0.2-2,0.5s-1.1,0.8-1.5,1.5s-0.5,1.3-0.5,2S43.9,305.4,44.3,306z M54.7,308
		v-8h-5v8H54.7z M58.7,307.5c0.6-0.4,1.1-0.8,1.5-1.5s0.5-1.3,0.5-2s-0.2-1.4-0.5-2s-0.8-1.1-1.5-1.5s-1.3-0.5-2-0.5v8
		C57.5,308,58.1,307.8,58.7,307.5z"/>
	<path d="M80.7,293v1.8c0,0.7-0.2,1.4-0.6,2c-0.4,0.6-0.9,1.1-1.5,1.5c-0.6,0.4-1.2,0.5-1.9,0.5c-0.5,0-1-0.1-1.5-0.3
		c-0.5-0.2-0.9-0.5-1.3-0.9l-1.8-1.8c-0.4-0.4-0.9-0.6-1.4-0.6c-0.5,0-0.9,0.2-1.3,0.6c-0.4,0.4-0.6,0.9-0.7,1.4v1.8h-2v-1.8
		c0-0.7,0.2-1.4,0.6-2c0.4-0.6,0.9-1.1,1.5-1.5c0.6-0.4,1.2-0.5,1.9-0.5c0.5,0,1,0.1,1.5,0.3c0.5,0.2,0.9,0.5,1.3,0.9l1.8,1.8
		c0.4,0.4,0.9,0.6,1.4,0.6c0.5,0,1-0.2,1.3-0.6s0.6-0.9,0.7-1.4V293H80.7z M78.7,301h2v1.8c0,0.7-0.2,1.4-0.6,2
		c-0.4,0.6-0.9,1.1-1.5,1.5c-0.6,0.4-1.2,0.5-1.9,0.5c-0.5,0-1-0.1-1.5-0.3c-0.5-0.2-0.9-0.5-1.3-0.9l-1.8-1.8
		c-0.4-0.4-0.9-0.6-1.4-0.6c-0.5,0-0.9,0.2-1.3,0.6c-0.4,0.4-0.6,0.9-0.7,1.4v1.8h-2v-1.8c0-0.7,0.2-1.4,0.6-2
		c0.4-0.6,0.9-1.1,1.5-1.5c0.6-0.4,1.2-0.5,1.9-0.5c0.5,0,1,0.1,1.5,0.3c0.5,0.2,0.9,0.5,1.3,0.9l1.8,1.8c0.4,0.4,0.9,0.6,1.4,0.6
		c0.5,0,1-0.2,1.3-0.6s0.6-0.9,0.7-1.4V301z M78.7,309h2v1.8c0,0.7-0.2,1.4-0.6,2c-0.4,0.6-0.9,1.1-1.5,1.5
		c-0.6,0.4-1.2,0.5-1.9,0.5c-0.5,0-1-0.1-1.5-0.3c-0.5-0.2-0.9-0.5-1.3-0.9l-1.8-1.8c-0.4-0.4-0.9-0.6-1.4-0.6
		c-0.5,0-0.9,0.2-1.3,0.6c-0.4,0.4-0.6,0.9-0.7,1.4v1.8h-2v-1.8c0-0.7,0.2-1.4,0.6-2c0.4-0.6,0.9-1.1,1.5-1.5
		c0.6-0.4,1.2-0.5,1.9-0.5c0.5,0,1,0.1,1.5,0.3c0.5,0.2,0.9,0.5,1.3,0.9l1.8,1.8c0.4,0.4,0.9,0.6,1.4,0.6c0.5,0,1-0.2,1.3-0.6
		s0.6-0.9,0.7-1.4V309z"/>
	<path d="M93.7,295h2.8l-9,9l9,9h-2.8l-9-9L93.7,295z M100.7,295h2.8l-9,9l9,9h-2.8l-9-9L100.7,295z M107.7,295h2.8l-9,9l9,9h-2.8
		l-9-9L107.7,295z"/>
	<path d="M140.3,299.7c0.8,0.4,1.4,1.1,1.8,1.8c0.4,0.8,0.7,1.6,0.7,2.5c0,0.9-0.2,1.7-0.7,2.5c-0.4,0.8-1.1,1.4-1.8,1.8
		c-0.8,0.4-1.6,0.7-2.5,0.7c-0.8,0-1.5-0.2-2.2-0.5c-0.7-0.3-1.3-0.8-1.8-1.4c-0.5-0.6-0.8-1.3-0.9-2h-8.2c-0.1,0.8-0.5,1.4-0.9,2
		c-0.5,0.6-1.1,1.1-1.8,1.4s-1.4,0.5-2.2,0.5c-0.9,0-1.7-0.2-2.5-0.7c-0.8-0.4-1.4-1.1-1.8-1.8c-0.4-0.8-0.7-1.6-0.7-2.5
		c0-0.9,0.2-1.7,0.7-2.5c0.4-0.8,1.1-1.4,1.8-1.8c0.8-0.4,1.6-0.7,2.5-0.7c0.8,0,1.5,0.2,2.2,0.5c0.7,0.3,1.3,0.8,1.8,1.4
		s0.8,1.3,0.9,2h8.2c0.1-0.8,0.5-1.4,0.9-2c0.5-0.6,1.1-1.1,1.8-1.4c0.7-0.3,1.4-0.5,2.2-0.5C138.7,299,139.5,299.2,140.3,299.7z
		 M139.3,306.6c0.5-0.3,0.8-0.6,1.1-1.1s0.4-1,0.4-1.5s-0.1-1-0.4-1.5s-0.6-0.8-1.1-1.1s-1-0.4-1.5-0.4s-1,0.1-1.5,0.4
		s-0.8,0.6-1.1,1.1c-0.3,0.5-0.4,1-0.4,1.5s0.1,1,0.4,1.5c0.3,0.5,0.6,0.8,1.1,1.1c0.5,0.3,1,0.4,1.5,0.4S138.8,306.9,139.3,306.6z"
		/>
	<path d="M164.7,306.5c0.6,0.4,1.1,0.8,1.5,1.5s0.5,1.3,0.5,2s-0.2,1.4-0.5,2s-0.8,1.1-1.5,1.5s-1.3,0.5-2,0.5s-1.4-0.2-2-0.5
		s-1.1-0.8-1.5-1.5s-0.5-1.3-0.5-2v-2h-4v2c0,0.7-0.2,1.4-0.5,2s-0.8,1.1-1.5,1.5s-1.3,0.5-2,0.5s-1.4-0.2-2-0.5s-1.1-0.8-1.5-1.5
		s-0.5-1.3-0.5-2s0.2-1.4,0.5-2s0.8-1.1,1.5-1.5s1.3-0.5,2-0.5h2v-4h-2c-0.7,0-1.4-0.2-2-0.5s-1.1-0.8-1.5-1.5s-0.5-1.3-0.5-2
		s0.2-1.4,0.5-2s0.8-1.1,1.5-1.5s1.3-0.5,2-0.5s1.4,0.2,2,0.5s1.1,0.8,1.5,1.5s0.5,1.3,0.5,2v2h4v-2c0-0.7,0.2-1.4,0.5-2
		s0.8-1.1,1.5-1.5s1.3-0.5,2-0.5s1.4,0.2,2,0.5s1.1,0.8,1.5,1.5s0.5,1.3,0.5,2s-0.2,1.4-0.5,2s-0.8,1.1-1.5,1.5s-1.3,0.5-2,0.5h-2v4
		h2C163.5,306,164.1,306.2,164.7,306.5z M152.7,300v-2c0-0.5-0.2-1-0.6-1.4c-0.4-0.4-0.9-0.6-1.4-0.6s-1,0.2-1.4,0.6
		c-0.4,0.4-0.6,0.9-0.6,1.4s0.2,1,0.6,1.4s0.9,0.6,1.4,0.6H152.7z M152.7,308h-2c-0.5,0-1,0.2-1.4,0.6c-0.4,0.4-0.6,0.9-0.6,1.4
		s0.2,1,0.6,1.4c0.4,0.4,0.9,0.6,1.4,0.6s1-0.2,1.4-0.6c0.4-0.4,0.6-0.9,0.6-1.4V308z M158.7,306v-4h-4v4H158.7z M160.7,300h2
		c0.5,0,1-0.2,1.4-0.6c0.4-0.4,0.6-0.9,0.6-1.4s-0.2-1-0.6-1.4c-0.4-0.4-0.9-0.6-1.4-0.6s-1,0.2-1.4,0.6c-0.4,0.4-0.6,0.9-0.6,1.4
		V300z M164.2,311.4c0.4-0.4,0.6-0.9,0.6-1.4s-0.2-1-0.6-1.4c-0.4-0.4-0.9-0.6-1.4-0.6h-2v2c0,0.5,0.2,1,0.6,1.4
		c0.4,0.4,0.9,0.6,1.4,0.6S163.8,311.8,164.2,311.4z"/>
	<path d="M170.7,294h7.4l10.4,18h6.2v2h-7.4l-10.4-18h-6.2V294z M194.7,294v2h-8v-2H194.7z"/>
	<path d="M199.7,294.4v6.6h-2v-10h10v2h-6.6l11.4,11.4l-1.4,1.4L199.7,294.4z M215.7,295.3c1.5,0.9,2.8,2.1,3.7,3.7
		c0.9,1.5,1.3,3.2,1.3,5s-0.5,3.5-1.3,5c-0.9,1.5-2.1,2.8-3.7,3.7c-1.5,0.9-3.2,1.3-5,1.3s-3.5-0.5-5-1.3c-1.5-0.9-2.8-2.1-3.7-3.7
		c-0.9-1.5-1.3-3.2-1.3-5h2c0,1.4,0.4,2.8,1.1,4s1.7,2.2,2.9,2.9s2.6,1.1,4,1.1s2.8-0.4,4-1.1s2.2-1.7,2.9-2.9s1.1-2.6,1.1-4
		s-0.4-2.8-1.1-4s-1.7-2.2-2.9-2.9s-2.6-1.1-4-1.1v-2C212.5,294,214.2,294.5,215.7,295.3z"/>
	<path d="M254.8,311.4c0,1.5-0.3,2.8-1,3.9c-0.7,1.2-1.6,2.1-2.7,2.7c-1.2,0.7-2.5,1-4,1h-14.7c-1.5,0-2.8-0.3-3.9-1
		s-2.1-1.6-2.7-2.7c-0.7-1.2-1-2.5-1-4v-14.7c0-1.5,0.3-2.8,1-3.9s1.6-2.1,2.7-2.7c1.2-0.7,2.5-1,4-1h14.7c1.5,0,2.8,0.3,3.9,1
		s2.1,1.6,2.7,2.7s1,2.5,1,3.9V311.4z M229.9,311l8-7l-8-7V311z M239.9,297v14h4v-14H239.9z M245.9,297v14h4v-14H245.9z"/>
	<path d="M286.7,302h-17v17h-2v-19h19V302z M286.7,306v2h-11v11h-2v-13H286.7z"/>
	<path d="M297.7,289h2v13h-13v-2h11V289z M299.7,306v13h-2v-11h-11v-2H299.7z M316.7,300v2h-13v-13h2v11H316.7z M316.7,306v2h-11v11
		h-2v-13H316.7z"/>
	<path d="M332.7,289v30h-2v-11h-14v-2h14v-4h-14v-2h14v-11H332.7z"/>
	<path d="M351.2,290.5v3h-3v-3H351.2z M351.2,296.5v3h-3v-3H351.2z M351.2,302.5v3h-3v-3H351.2z M351.2,308.5v3h-3v-3H351.2z
		 M351.2,314.5v3h-3v-3H351.2z M357.2,290.5v3h-3v-3H357.2z M357.2,296.5v3h-3v-3H357.2z M357.2,302.5v3h-3v-3H357.2z M357.2,308.5
		v3h-3v-3H357.2z M357.2,314.5v3h-3v-3H357.2z M363.2,290.5v3h-3v-3H363.2z M363.2,296.5v3h-3v-3H363.2z M363.2,302.5v3h-3v-3H363.2
		z M363.2,308.5v3h-3v-3H363.2z M363.2,314.5v3h-3v-3H363.2z M369.2,290.5v3h-3v-3H369.2z M369.2,296.5v3h-3v-3H369.2z M369.2,302.5
		v3h-3v-3H369.2z M369.2,308.5v3h-3v-3H369.2z M369.2,314.5v3h-3v-3H369.2z M375.2,290.5v3h-3v-3H375.2z M375.2,296.5v3h-3v-3H375.2
		z M375.2,302.5v3h-3v-3H375.2z M375.2,308.5v3h-3v-3H375.2z M375.2,314.5v3h-3v-3H375.2z"/>
	<path d="M49.7,342.9c0.3-0.3,0.6-0.4,1.1-0.4c0.4,0,0.8,0.1,1.1,0.4c0.3,0.3,0.4,0.6,0.4,1.1s-0.1,0.8-0.4,1.1
		c-0.3,0.3-0.6,0.4-1.1,0.4c-0.4,0-0.8-0.1-1.1-0.4c-0.3-0.3-0.4-0.6-0.4-1.1S49.4,343.2,49.7,342.9z M51.2,338.2
		c0.2-0.1,0.5-0.2,0.8-0.2c0.3,0,0.5,0.1,0.7,0.2c0.2,0.1,0.4,0.3,0.6,0.5c0.1,0.2,0.2,0.5,0.2,0.8c0,0.3-0.1,0.5-0.2,0.7
		c-0.1,0.2-0.3,0.4-0.5,0.6c-0.2,0.1-0.5,0.2-0.8,0.2c-0.3,0-0.5-0.1-0.7-0.2c-0.2-0.1-0.4-0.3-0.6-0.6s-0.2-0.5-0.2-0.8
		s0.1-0.5,0.2-0.7C50.7,338.5,50.9,338.3,51.2,338.2z M50.4,348.5c0-0.3,0.1-0.5,0.2-0.8s0.3-0.4,0.6-0.5c0.2-0.1,0.5-0.2,0.7-0.2
		c0.3,0,0.5,0.1,0.8,0.2c0.2,0.1,0.4,0.3,0.5,0.5c0.1,0.2,0.2,0.5,0.2,0.7s-0.1,0.5-0.2,0.8c-0.1,0.2-0.3,0.4-0.6,0.6
		c-0.2,0.1-0.5,0.2-0.7,0.2c-0.3,0-0.5-0.1-0.8-0.2c-0.2-0.1-0.4-0.3-0.6-0.6C50.5,349,50.4,348.8,50.4,348.5z M55.2,334.7
		c0.3,0,0.5,0.1,0.8,0.2c0.2,0.1,0.4,0.3,0.5,0.6c0.1,0.2,0.2,0.5,0.2,0.7c0,0.3-0.1,0.5-0.2,0.8c-0.1,0.2-0.3,0.4-0.6,0.5
		c-0.2,0.1-0.5,0.2-0.7,0.2c-0.3,0-0.5-0.1-0.8-0.2c-0.2-0.1-0.4-0.3-0.6-0.5c-0.1-0.2-0.2-0.5-0.2-0.7c0-0.3,0.1-0.5,0.2-0.8
		c0.1-0.2,0.3-0.4,0.6-0.6C54.7,334.7,55,334.7,55.2,334.7z M53.9,352.6c-0.1-0.2-0.2-0.5-0.2-0.8c0-0.3,0.1-0.5,0.2-0.7
		c0.1-0.2,0.3-0.4,0.5-0.5c0.2-0.1,0.5-0.2,0.8-0.2c0.3,0,0.5,0.1,0.7,0.2c0.2,0.1,0.4,0.3,0.6,0.5s0.2,0.5,0.2,0.8
		c0,0.3-0.1,0.5-0.2,0.7c-0.1,0.2-0.3,0.4-0.6,0.6c-0.2,0.1-0.5,0.2-0.8,0.2c-0.3,0-0.5-0.1-0.7-0.2C54.2,353,54.1,352.8,53.9,352.6
		z M58.7,336.1c-0.3-0.3-0.4-0.6-0.4-1.1s0.1-0.8,0.4-1.1c0.3-0.3,0.6-0.4,1.1-0.4c0.4,0,0.8,0.1,1.1,0.4c0.3,0.3,0.4,0.6,0.4,1.1
		s-0.1,0.8-0.4,1.1c-0.3,0.3-0.6,0.4-1.1,0.4C59.3,336.5,59,336.4,58.7,336.1z M58.7,354.1c-0.3-0.3-0.4-0.6-0.4-1.1
		s0.1-0.8,0.4-1.1c0.3-0.3,0.6-0.4,1.1-0.4c0.4,0,0.8,0.1,1.1,0.4c0.3,0.3,0.4,0.6,0.4,1.1s-0.1,0.8-0.4,1.1
		c-0.3,0.3-0.6,0.4-1.1,0.4C59.3,354.5,59,354.4,58.7,354.1z M62.9,337c-0.1-0.2-0.2-0.5-0.2-0.8c0-0.3,0.1-0.5,0.2-0.7
		c0.1-0.2,0.3-0.4,0.5-0.6c0.2-0.1,0.5-0.2,0.8-0.2c0.3,0,0.5,0.1,0.7,0.2c0.2,0.1,0.4,0.3,0.6,0.6s0.2,0.5,0.2,0.8
		c0,0.3-0.1,0.5-0.2,0.7c-0.1,0.2-0.3,0.4-0.6,0.5c-0.2,0.1-0.5,0.2-0.8,0.2c-0.3,0-0.5-0.1-0.7-0.2C63.2,337.4,63.1,337.2,62.9,337
		z M64.2,350.3c0.3,0,0.5,0.1,0.8,0.2c0.2,0.1,0.4,0.3,0.5,0.5c0.1,0.2,0.2,0.5,0.2,0.7c0,0.3-0.1,0.5-0.2,0.8
		c-0.1,0.2-0.3,0.4-0.6,0.6c-0.2,0.1-0.5,0.2-0.7,0.2c-0.3,0-0.5-0.1-0.8-0.2c-0.2-0.1-0.4-0.3-0.6-0.6c-0.1-0.2-0.2-0.5-0.2-0.7
		c0-0.3,0.1-0.5,0.2-0.8c0.1-0.2,0.3-0.4,0.6-0.5C63.7,350.3,64,350.3,64.2,350.3z M66,339.5c0-0.3,0.1-0.5,0.2-0.8
		c0.1-0.2,0.3-0.4,0.5-0.5c0.2-0.1,0.5-0.2,0.7-0.2c0.3,0,0.5,0.1,0.8,0.2c0.2,0.1,0.4,0.3,0.6,0.5c0.1,0.2,0.2,0.5,0.2,0.7
		s-0.1,0.5-0.2,0.8s-0.3,0.4-0.6,0.6c-0.2,0.1-0.5,0.2-0.7,0.2c-0.3,0-0.5-0.1-0.8-0.2c-0.2-0.1-0.4-0.3-0.5-0.6
		C66.1,340,66,339.8,66,339.5z M66.8,347.2c0.2-0.1,0.5-0.2,0.8-0.2c0.3,0,0.5,0.1,0.7,0.2c0.2,0.1,0.4,0.3,0.6,0.5s0.2,0.5,0.2,0.8
		c0,0.3-0.1,0.5-0.2,0.7c-0.1,0.2-0.3,0.4-0.6,0.6c-0.2,0.1-0.5,0.2-0.8,0.2c-0.3,0-0.5-0.1-0.7-0.2c-0.2-0.1-0.4-0.3-0.5-0.6
		c-0.1-0.2-0.2-0.5-0.2-0.8s0.1-0.5,0.2-0.7C66.3,347.5,66.5,347.3,66.8,347.2z M67.7,342.9c0.3-0.3,0.6-0.4,1.1-0.4
		c0.4,0,0.8,0.1,1.1,0.4c0.3,0.3,0.4,0.6,0.4,1.1s-0.1,0.8-0.4,1.1c-0.3,0.3-0.6,0.4-1.1,0.4c-0.4,0-0.8-0.1-1.1-0.4
		c-0.3-0.3-0.4-0.6-0.4-1.1S67.4,343.2,67.7,342.9z"/>
	<path d="M98,350.5c-1.2,2-2.7,3.6-4.7,4.7s-4.2,1.7-6.5,1.7s-4.5-0.6-6.5-1.7c-2-1.2-3.6-2.7-4.7-4.7c-1.2-2-1.7-4.2-1.7-6.5
		s0.6-4.5,1.7-6.5c1.2-2,2.7-3.6,4.7-4.7c2-1.2,4.2-1.7,6.5-1.7s4.5,0.6,6.5,1.7s3.6,2.7,4.7,4.7c1.2,2,1.7,4.2,1.7,6.5
		S99.2,348.5,98,350.5z M86.7,333c-2,0-3.8,0.5-5.5,1.5c-1.7,1-3,2.3-4,4c-1,1.7-1.5,3.5-1.5,5.5s0.5,3.8,1.5,5.5s2.3,3,4,4
		c1.7,1,3.5,1.5,5.5,1.5V333z"/>
	<path d="M123.7,334v20h-20v-20H123.7z M121.7,345h-9v-9h-7v16h16V345z M121.7,336h-7v7h7V336z"/>
	<path d="M147.7,334v20h-20v-20H147.7z M129.7,352h16v-16h-16V352z M135.9,346.4l7.8-7.8v2.8l-8.2,8.2l-3.9-6.6h2.4L135.9,346.4z"/>
	<path d="M152.7,332.7c0.7-1.2,1.6-2.1,2.7-2.7c1.2-0.7,2.5-1,3.9-1H174c1.5,0,2.8,0.3,4,1c1.2,0.7,2.1,1.6,2.7,2.7s1,2.5,1,3.9
		v14.7c0,1.5-0.3,2.8-1,4c-0.7,1.2-1.6,2.1-2.7,2.7s-2.5,1-3.9,1h-14.7c-1.5,0-2.8-0.3-4-1c-1.2-0.7-2.1-1.6-2.7-2.7s-1-2.5-1-3.9
		v-14.8C151.7,335.1,152.1,333.8,152.7,332.7z M157.2,349.5c1,1.7,2.3,3,4,4c1.7,1,3.5,1.5,5.5,1.5s3.8-0.5,5.5-1.5c1.7-1,3-2.3,4-4
		c1-1.7,1.5-3.5,1.5-5.5s-0.5-3.8-1.5-5.5c-1-1.7-2.3-3-4-4c-1.7-1-3.5-1.5-5.5-1.5s-3.8,0.5-5.5,1.5c-1.7,1-3,2.3-4,4
		c-1,1.7-1.5,3.5-1.5,5.5S156.2,347.8,157.2,349.5z M158.8,339.8c0.7-1.3,1.7-2.4,2.9-3.2c1.2-0.8,2.6-1.3,4-1.5v8.5l-6,6
		c-0.7-0.7-1.2-1.6-1.5-2.6s-0.5-2-0.5-3C157.7,342.5,158.1,341.1,158.8,339.8z M165.7,346.4v6.5c-0.8-0.1-1.7-0.2-2.4-0.6
		c-0.8-0.3-1.5-0.8-2.2-1.3L165.7,346.4z M167.7,335.1c1.5,0.2,2.8,0.7,4,1.5c1.2,0.8,2.2,1.9,2.9,3.2c0.7,1.3,1.1,2.7,1.1,4.2
		c0,1.1-0.2,2.1-0.5,3s-0.8,1.8-1.5,2.6l-6-6V335.1z M170.2,352.3c-0.8,0.3-1.6,0.5-2.4,0.6v-6.5l4.6,4.6
		C171.7,351.6,171,352,170.2,352.3z"/>
	<path d="M204.3,332.8c2,1.2,3.6,2.7,4.7,4.7c1.2,2,1.8,4.2,1.8,6.5s-0.6,4.5-1.8,6.5c-1.2,2-2.7,3.6-4.7,4.7
		c-2,1.2-4.2,1.8-6.5,1.8s-4.5-0.6-6.5-1.8c-2-1.2-3.6-2.7-4.7-4.7c-1.2-2-1.8-4.2-1.8-6.5s0.6-4.5,1.8-6.5c1.2-2,2.7-3.6,4.7-4.7
		c2-1.2,4.2-1.8,6.5-1.8S202.3,331.6,204.3,332.8z M201.8,350.9c1.2-0.7,2.2-1.7,2.9-2.9c0.7-1.2,1.1-2.6,1.1-4h-2
		c0,1.1-0.3,2.1-0.8,3c-0.5,0.9-1.3,1.6-2.2,2.2s-1.9,0.8-3,0.8c-1.1,0-2.1-0.3-3-0.8c-0.9-0.5-1.6-1.3-2.2-2.2
		c-0.5-0.9-0.8-1.9-0.8-3h-2c0,1.5,0.4,2.8,1.1,4c0.7,1.2,1.7,2.2,2.9,2.9c1.2,0.7,2.6,1.1,4,1.1S200.5,351.6,201.8,350.9z
		 M192.3,338.6c-0.4,0.4-0.6,0.9-0.6,1.4s0.2,1,0.6,1.4s0.9,0.6,1.4,0.6s1-0.2,1.4-0.6c0.4-0.4,0.6-0.9,0.6-1.4s-0.2-1-0.6-1.4
		c-0.4-0.4-0.9-0.6-1.4-0.6S192.7,338.2,192.3,338.6z M200.3,338.6c-0.4,0.4-0.6,0.9-0.6,1.4s0.2,1,0.6,1.4s0.9,0.6,1.4,0.6
		s1-0.2,1.4-0.6c0.4-0.4,0.6-0.9,0.6-1.4s-0.2-1-0.6-1.4c-0.4-0.4-0.9-0.6-1.4-0.6S200.7,338.2,200.3,338.6z"/>
	<path d="M232.7,342l-9,12l-9-12c-0.7-0.9-1-1.9-1-3c0-0.9,0.2-1.7,0.7-2.5c0.4-0.8,1.1-1.4,1.8-1.8c0.8-0.4,1.6-0.7,2.5-0.7
		c0.8,0,1.5,0.2,2.2,0.5s1.3,0.8,1.8,1.5l1,1l1-1c0.5-0.6,1-1.1,1.8-1.5s1.5-0.5,2.2-0.5c0.9,0,1.7,0.2,2.5,0.7
		c0.8,0.4,1.4,1.1,1.8,1.8c0.4,0.8,0.7,1.6,0.7,2.5C233.7,340.1,233.4,341.1,232.7,342z"/>
	<path d="M259.7,328.4V351c0,0.7-0.2,1.4-0.5,2c-0.4,0.6-0.8,1.1-1.5,1.5c-0.6,0.4-1.3,0.5-2,0.5c-0.7,0-1.4-0.2-2-0.6
		c-0.6-0.4-1.1-0.9-1.5-1.5s-0.5-1.3-0.5-2c0-0.7,0.2-1.4,0.5-2c0.4-0.6,0.8-1.1,1.5-1.4c0.6-0.4,1.3-0.6,2-0.6c0.7,0,1.4,0.2,2,0.5
		v-13.4l-12,3.5V355c0,0.7-0.2,1.4-0.5,2c-0.4,0.6-0.8,1.1-1.5,1.5c-0.6,0.4-1.3,0.5-2,0.5c-0.7,0-1.4-0.2-2-0.6
		c-0.6-0.4-1.1-0.9-1.5-1.5s-0.5-1.3-0.5-2c0-0.7,0.2-1.4,0.5-2c0.4-0.6,0.8-1.1,1.5-1.4c0.6-0.4,1.3-0.6,2-0.6c0.7,0,1.4,0.2,2,0.5
		V333L259.7,328.4z"/>
	<path d="M288.7,330.8c0.9,0.5,1.7,1.3,2.2,2.2s0.8,1.9,0.8,3v16c0,1.1-0.3,2.1-0.8,3s-1.3,1.7-2.2,2.2s-1.9,0.8-3,0.8h-16
		c-1.1,0-2.1-0.3-3-0.8s-1.7-1.3-2.2-2.2s-0.8-1.9-0.8-3v-16c0-1.1,0.3-2.1,0.8-3s1.3-1.7,2.2-2.2s1.9-0.8,3-0.8h16
		C286.8,330,287.8,330.3,288.7,330.8z M287.7,355.5c0.6-0.4,1.1-0.8,1.5-1.5s0.5-1.3,0.5-2v-16c0-0.7-0.2-1.4-0.5-2
		s-0.8-1.1-1.5-1.5s-1.3-0.5-2-0.5h-16c-0.7,0-1.4,0.2-2,0.5s-1.1,0.8-1.5,1.5s-0.5,1.3-0.5,2v16c0,0.7,0.2,1.4,0.5,2
		s0.8,1.1,1.5,1.5s1.3,0.5,2,0.5h16C286.5,356,287.1,355.8,287.7,355.5z M273.2,336.6c0.4,0.4,0.6,0.9,0.6,1.4s-0.2,1-0.6,1.4
		c-0.4,0.4-0.9,0.6-1.4,0.6s-1-0.2-1.4-0.6s-0.6-0.9-0.6-1.4s0.2-1,0.6-1.4c0.4-0.4,0.9-0.6,1.4-0.6S272.8,336.2,273.2,336.6z
		 M273.2,348.6c0.4,0.4,0.6,0.9,0.6,1.4s-0.2,1-0.6,1.4c-0.4,0.4-0.9,0.6-1.4,0.6s-1-0.2-1.4-0.6c-0.4-0.4-0.6-0.9-0.6-1.4
		s0.2-1,0.6-1.4c0.4-0.4,0.9-0.6,1.4-0.6S272.8,348.2,273.2,348.6z M279.2,342.6c0.4,0.4,0.6,0.9,0.6,1.4s-0.2,1-0.6,1.4
		c-0.4,0.4-0.9,0.6-1.4,0.6s-1-0.2-1.4-0.6s-0.6-0.9-0.6-1.4s0.2-1,0.6-1.4c0.4-0.4,0.9-0.6,1.4-0.6S278.8,342.2,279.2,342.6z
		 M285.2,336.6c0.4,0.4,0.6,0.9,0.6,1.4s-0.2,1-0.6,1.4c-0.4,0.4-0.9,0.6-1.4,0.6s-1-0.2-1.4-0.6s-0.6-0.9-0.6-1.4s0.2-1,0.6-1.4
		c0.4-0.4,0.9-0.6,1.4-0.6S284.8,336.2,285.2,336.6z M285.2,348.6c0.4,0.4,0.6,0.9,0.6,1.4s-0.2,1-0.6,1.4c-0.4,0.4-0.9,0.6-1.4,0.6
		s-1-0.2-1.4-0.6c-0.4-0.4-0.6-0.9-0.6-1.4s0.2-1,0.6-1.4c0.4-0.4,0.9-0.6,1.4-0.6S284.8,348.2,285.2,348.6z"/>
	<path d="M322.7,336h-2v-3.6l-5.4,5.4c0.4,0.6,0.8,1.3,1,2c0.2,0.7,0.4,1.5,0.4,2.2c0,1.3-0.3,2.5-0.9,3.5s-1.5,1.9-2.5,2.5
		s-2.2,0.9-3.5,0.9c-1.3,0-2.4-0.3-3.5-0.9c-0.7,0.4-1.6,0.7-2.5,0.9v4.1h4v2h-4v4h-2v-4h-4v-2h4v-4.1c-1.1-0.2-2.2-0.6-3.1-1.2
		c-0.9-0.6-1.6-1.5-2.1-2.5c-0.5-1-0.8-2.1-0.8-3.3c0-1.3,0.3-2.5,0.9-3.5s1.5-1.9,2.5-2.5s2.2-0.9,3.5-0.9c1.3,0,2.4,0.3,3.5,0.9
		c1.1-0.6,2.2-0.9,3.5-0.9c0.8,0,1.5,0.1,2.2,0.4c0.7,0.2,1.4,0.6,2,1l5.4-5.4h-3.6v-2h7V336z M298.4,344.5c0.4,0.8,1,1.4,1.8,1.8
		c0.8,0.4,1.6,0.7,2.5,0.7c0.6,0,1.2-0.1,1.8-0.3c-0.6-0.6-1-1.3-1.3-2.1s-0.5-1.7-0.5-2.5s0.2-1.7,0.5-2.5s0.7-1.5,1.3-2.1
		c-0.6-0.2-1.2-0.3-1.8-0.3c-0.9,0-1.8,0.2-2.5,0.7c-0.8,0.4-1.4,1-1.8,1.8c-0.4,0.8-0.7,1.6-0.7,2.5S298,343.8,298.4,344.5z
		 M307.3,340c-0.3-0.6-0.6-1.2-1.1-1.6c-0.5,0.5-0.8,1-1.1,1.6c-0.3,0.6-0.4,1.3-0.4,2s0.1,1.4,0.4,2c0.3,0.6,0.6,1.2,1.1,1.6
		c0.5-0.5,0.8-1,1.1-1.6c0.3-0.6,0.4-1.3,0.4-2S307.6,340.6,307.3,340z M312.3,346.3c0.8-0.4,1.4-1,1.8-1.8c0.4-0.8,0.7-1.6,0.7-2.5
		s-0.2-1.8-0.7-2.5c-0.4-0.8-1-1.4-1.8-1.8c-0.8-0.4-1.6-0.7-2.5-0.7c-0.6,0-1.2,0.1-1.8,0.3c0.6,0.6,1,1.3,1.3,2.1s0.5,1.7,0.5,2.5
		s-0.2,1.7-0.5,2.5s-0.7,1.5-1.3,2.1c0.6,0.2,1.2,0.3,1.8,0.3C310.7,347,311.5,346.8,312.3,346.3z"/>
	<path d="M348.1,340.2c0.5,1.2,0.7,2.5,0.7,3.8s-0.2,2.6-0.7,3.8c-0.5,1.2-1.2,2.3-2.2,3.3c-1,1-2.1,1.7-3.3,2.2
		c-1.2,0.5-2.5,0.8-3.8,0.8l-0.1-2c1.1,0,2.1-0.2,3.1-0.6c1-0.4,1.9-1,2.6-1.8s1.4-1.6,1.8-2.6c0.4-1,0.6-2,0.6-3c0-1-0.2-2.1-0.6-3
		c-0.4-1-1-1.9-1.7-2.6c-0.7-0.8-1.6-1.3-2.6-1.7c-1-0.4-2-0.6-3.1-0.6c-1,0-2.1,0.2-3,0.6c-1,0.4-1.9,1-2.6,1.7
		c-0.8,0.8-1.4,1.7-1.8,2.6c-0.4,1-0.6,2-0.6,3h3l-4,8.5l-3.8-8.5h2.8c0-1.3,0.3-2.6,0.8-3.8s1.2-2.3,2.2-3.3c0.9-1,2-1.7,3.3-2.2
		c1.2-0.5,2.5-0.7,3.8-0.7s2.6,0.2,3.8,0.7c1.2,0.5,2.3,1.2,3.3,2.2C346.8,337.9,347.6,339,348.1,340.2z"/>
	<path d="M39.3,377.7c-0.6,1.2-1.5,2.1-2.5,2.8s-2.3,1.2-3.5,1.4V394h-2v-12.1c-1.3-0.2-2.5-0.6-3.5-1.4c-1.1-0.7-1.9-1.7-2.5-2.8
		s-0.9-2.4-0.9-3.7h2c0,1,0.2,1.9,0.6,2.7s1,1.5,1.8,2.1c0.8,0.6,1.6,0.9,2.5,1.1V374h2v5.9c0.9-0.2,1.8-0.5,2.5-1.1
		c0.8-0.6,1.4-1.3,1.8-2.1c0.4-0.8,0.6-1.8,0.6-2.7h2C40.3,375.3,39.9,376.6,39.3,377.7z"/>
	<path d="M50.3,379v2.4l-4,3v9.6h-2v-8.1l-4,3v-2.4l4-3V374h2v8L50.3,379z"/>
	<path d="M60.3,377v2.4l-4-3V394h-2v-20h2L60.3,377z"/>
	<path d="M65.7,381.6c-0.5-0.3-0.8-0.6-1.1-1.1s-0.4-1-0.4-1.5s0.1-1,0.4-1.5s0.6-0.8,1.1-1.1c0.5-0.3,1-0.4,1.5-0.4
		c0.5,0,1,0.1,1.5,0.4c0.5,0.3,0.8,0.6,1.1,1.1c0.3,0.5,0.4,1,0.4,1.5s-0.1,1-0.4,1.5c-0.3,0.5-0.6,0.8-1.1,1.1
		c-0.5,0.3-1,0.4-1.5,0.4C66.7,382,66.2,381.9,65.7,381.6z M65.7,391.6c-0.5-0.3-0.8-0.6-1.1-1.1s-0.4-1-0.4-1.5s0.1-1,0.4-1.5
		s0.6-0.8,1.1-1.1c0.5-0.3,1-0.4,1.5-0.4c0.5,0,1,0.1,1.5,0.4c0.5,0.3,0.8,0.6,1.1,1.1c0.3,0.5,0.4,1,0.4,1.5s-0.1,1-0.4,1.5
		c-0.3,0.5-0.6,0.8-1.1,1.1c-0.5,0.3-1,0.4-1.5,0.4C66.7,392,66.2,391.9,65.7,391.6z"/>
	<path d="M86.3,384v10h-2v-9.2l-8-8V394h-2v-20h2L86.3,384z"/>
	<path d="M101.3,377.7c-0.6,1.2-1.5,2.1-2.5,2.8s-2.3,1.2-3.5,1.4V394h-2v-12.1c-1.3-0.2-2.5-0.6-3.5-1.4c-1.1-0.7-1.9-1.7-2.5-2.8
		s-0.9-2.4-0.9-3.7h2c0,1,0.2,1.9,0.6,2.7s1,1.5,1.8,2.1c0.8,0.6,1.6,0.9,2.5,1.1V374h2v5.9c0.9-0.2,1.8-0.5,2.5-1.1
		c0.8-0.6,1.4-1.3,1.8-2.1c0.4-0.8,0.6-1.8,0.6-2.7h2C102.3,375.3,101.9,376.6,101.3,377.7z"/>
	<path d="M119.5,374l-11.2,11.2v8.8h-2v-20h2v8.8l8.8-8.8H119.5z"/>
	<path d="M128.3,386.5v2.4l-4-3v8.1h-2v-20h2v9.5L128.3,386.5z"/>
	<path d="M139.9,394l-4.2-7.3l-1.4,1.4v5.9h-2v-20h2.4l6.6,7l-4.2,4.2l5.2,8.8H139.9z M134.3,385.3l4.3-4.3l-4.3-4.5V385.3z"/>
	<path d="M153.3,379v2.4l-4,3v9.6h-2v-8.1l-4,3v-2.4l4-3V374h2v8L153.3,379z"/>
	<path d="M169.3,380.5V394h-2v-11.1l-8,4.6h-2V374h2v11.1l8-4.6H169.3z"/>
	<path d="M179.3,377v2.4l-4-3V394h-2v-17.6l-4,3V377l4-3h2L179.3,377z"/>
	<path d="M185.3,374v20h-2v-20H185.3z"/>
	<path d="M208.3,385h-4.4l-3.4,6h-2.2l4-7l-4-7h2.2l3.4,6h4.4V385z"/>
	<path d="M236.3,383v2h-28v-2h4v-9h2v9h4v-9h2v9h4v-9h2v9h4v-9h2v9H236.3z"/>
	<path d="M252.3,385h-4v4h-2v-4h-4v4h-2v-4h-4v-2h4v-4h2v4h4v-4h2v4h4V385z"/>
	<path d="M286.3,385H282l-2.3,9h-2l2.3-9h-4l-2.3,9h-2l2.3-9h-4l-2.3,9h-2l2.3-9h-4l-2.3,9h-2l2.3-9h-4l-2.3,9h-2l2.3-9h-3.8v-2h4.3
		l2.2-9h2l-2.2,9h4l2.2-9h2l-2.2,9h4l2.2-9h2l-2.2,9h4l2.2-9h2l-2.2,9h4l2.2-9h2l-2.2,9h3.7V385z"/>
	<path d="M296.3,385h-4v9h-2v-9h-4v-2h10V385z"/>
	<path d="M308.3,385h-4.5l3.5,9h-2.2l-2.8-7.2l-2.8,7.2h-2.2l3.5-9h-4.5v-2h4.5l-3.5-9h2.2l2.8,7.2l2.8-7.2h2.2l-3.5,9h4.5V385z"/>
	<path d="M324.3,385h-4v4h-2v-4h-4v4h-2v-4h-4v-2h4v-4h2v4h4v-4h2v4h4V385z"/>
	<path d="M334.3,385H330l-2.3,9h-2l2.3-9h-3.8v-2h4.3l2.2-9h2l-2.2,9h3.7V385z"/>
	<path d="M350.3,385h-4v9h-2v-9h-4v9h-2v-9h-4v-2h16V385z"/>
	<path d="M366.3,383v2h-16v-2h4v-9h2v9h4v-9h2v9H366.3z"/>
	<path d="M372.3,384l4,7h-2.2l-3.4-6h-4.4v-2h4.4l3.4-6h2.2L372.3,384z"/>
</g>
</svg>
